<?xml version="1.0" encoding="utf-8"?>
<!-- Generator: Adobe Illustrator 18.0.0, SVG Export Plug-In . SVG Version: 6.00 Build 0)  -->
<!DOCTYPE svg PUBLIC "-//W3C//DTD SVG 1.1//EN" "http://www.w3.org/Graphics/SVG/1.1/DTD/svg11.dtd">
<svg version="1.1" xmlns="http://www.w3.org/2000/svg" xmlns:xlink="http://www.w3.org/1999/xlink" x="0px" y="0px"
	 viewBox="0 0 960 300" style="enable-background:new 0 0 960 300;" xml:space="preserve">
<g id="Layer_4">
	<rect style="fill:#E5FCC2;stroke:#000000;stroke-width:5;stroke-miterlimit:10;" width="960" height="300"/>
</g>
<g id="Grid">
	<g>
		<rect x="1.5" y="1.5" style="fill:#E5FCC2;stroke:#000000;stroke-width:5;stroke-miterlimit:10;" width="960" height="300"/>
		<line style="fill:#E5FCC2;stroke:#000000;stroke-width:5;stroke-miterlimit:10;" x1="964" y1="76.5" x2="4" y2="76.5"/>
		<line style="fill:#E5FCC2;stroke:#000000;stroke-width:5;stroke-miterlimit:10;" x1="964" y1="151.5" x2="4" y2="151.5"/>
		<line style="fill:#E5FCC2;stroke:#000000;stroke-width:5;stroke-miterlimit:10;" x1="964" y1="226.5" x2="4" y2="226.5"/>
		<line style="fill:#E5FCC2;stroke:#000000;stroke-width:5;stroke-miterlimit:10;" x1="69.5" y1="299" x2="69.5" y2="-1"/>
		
			<line style="opacity:0.5;fill:#E5FCC2;stroke:#BDCCD4;stroke-width:5;stroke-miterlimit:10;" x1="69.5" y1="299" x2="69.5" y2="-1"/>
		<line style="fill:#E5FCC2;stroke:#000000;stroke-width:5;stroke-miterlimit:10;" x1="138.5" y1="299" x2="138.5" y2="-1"/>
		<line style="fill:#E5FCC2;stroke:#000000;stroke-width:5;stroke-miterlimit:10;" x1="206.5" y1="299" x2="206.5" y2="-1"/>
		<line style="fill:#E5FCC2;stroke:#000000;stroke-width:5;stroke-miterlimit:10;" x1="275.5" y1="299" x2="275.5" y2="-1"/>
		<line style="fill:#E5FCC2;stroke:#000000;stroke-width:5;stroke-miterlimit:10;" x1="344.5" y1="299" x2="344.5" y2="-1"/>
		<line style="fill:#E5FCC2;stroke:#000000;stroke-width:5;stroke-miterlimit:10;" x1="412.5" y1="299" x2="412.5" y2="-1"/>
		<line style="fill:#E5FCC2;stroke:#000000;stroke-width:5;stroke-miterlimit:10;" x1="481.5" y1="299" x2="481.5" y2="-1"/>
		<line style="fill:#E5FCC2;stroke:#000000;stroke-width:5;stroke-miterlimit:10;" x1="549.5" y1="299" x2="549.5" y2="-1"/>
		<line style="fill:#E5FCC2;stroke:#000000;stroke-width:5;stroke-miterlimit:10;" x1="618.5" y1="299" x2="618.5" y2="-1"/>
		<line style="fill:#E5FCC2;stroke:#000000;stroke-width:5;stroke-miterlimit:10;" x1="686.5" y1="299" x2="686.5" y2="-1"/>
		<line style="fill:#E5FCC2;stroke:#000000;stroke-width:5;stroke-miterlimit:10;" x1="755.5" y1="299" x2="755.5" y2="-1"/>
		<line style="fill:#E5FCC2;stroke:#000000;stroke-width:5;stroke-miterlimit:10;" x1="824.5" y1="299" x2="824.5" y2="-1"/>
		<line style="fill:#E5FCC2;stroke:#000000;stroke-width:5;stroke-miterlimit:10;" x1="892.5" y1="299" x2="892.5" y2="-1"/>
	</g>
	<g style="opacity:0.5;">
		<circle style="fill:#E5FCC2;" cx="377.5" cy="149.3" r="33.3"/>
		
			<circle style="opacity:0.2;fill:none;stroke:#000000;stroke-linecap:round;stroke-linejoin:round;" cx="377.5" cy="149.3" r="33.3"/>
		
			<circle style="opacity:0.25;fill:none;stroke:#709CD2;stroke-width:6;stroke-linecap:round;stroke-linejoin:round;" cx="377.5" cy="149.3" r="33.3"/>
		
			<circle style="opacity:0.3;fill:none;stroke:#5E93CD;stroke-width:5;stroke-linecap:round;stroke-linejoin:round;" cx="377.5" cy="149.3" r="33.3"/>
		
			<circle style="fill:none;stroke:#0073BC;stroke-width:4;stroke-linecap:round;stroke-linejoin:round;" cx="377.5" cy="149.3" r="33.3"/>
		
			<circle style="fill:none;stroke:#3081C4;stroke-width:3.25;stroke-linecap:round;stroke-linejoin:round;" cx="377.5" cy="149.3" r="33.3"/>
		
			<circle style="fill:none;stroke:#578FCB;stroke-width:2.5;stroke-linecap:round;stroke-linejoin:round;" cx="377.5" cy="149.3" r="33.3"/>
		
			<circle style="fill:none;stroke:#7EA4D6;stroke-width:1.65;stroke-linecap:round;stroke-linejoin:round;" cx="377.5" cy="149.3" r="33.3"/>
		
			<circle style="fill:none;stroke:#000000;stroke-width:0.65;stroke-linecap:round;stroke-linejoin:round;" cx="377.5" cy="149.3" r="33.3"/>
	</g>
	<g style="opacity:0.5;">
		<circle style="fill:#E5FCC2;" cx="514.5" cy="151.3" r="33.3"/>
		
			<circle style="opacity:0.2;fill:none;stroke:#000000;stroke-linecap:round;stroke-linejoin:round;" cx="514.5" cy="151.3" r="33.3"/>
		
			<circle style="opacity:0.25;fill:none;stroke:#709CD2;stroke-width:6;stroke-linecap:round;stroke-linejoin:round;" cx="514.5" cy="151.3" r="33.3"/>
		
			<circle style="opacity:0.3;fill:none;stroke:#5E93CD;stroke-width:5;stroke-linecap:round;stroke-linejoin:round;" cx="514.5" cy="151.3" r="33.3"/>
		
			<circle style="fill:none;stroke:#0073BC;stroke-width:4;stroke-linecap:round;stroke-linejoin:round;" cx="514.5" cy="151.3" r="33.3"/>
		
			<circle style="fill:none;stroke:#3081C4;stroke-width:3.25;stroke-linecap:round;stroke-linejoin:round;" cx="514.5" cy="151.3" r="33.3"/>
		
			<circle style="fill:none;stroke:#578FCB;stroke-width:2.5;stroke-linecap:round;stroke-linejoin:round;" cx="514.5" cy="151.3" r="33.3"/>
		
			<circle style="fill:none;stroke:#7EA4D6;stroke-width:1.65;stroke-linecap:round;stroke-linejoin:round;" cx="514.5" cy="151.3" r="33.3"/>
		
			<circle style="fill:none;stroke:#000000;stroke-width:0.65;stroke-linecap:round;stroke-linejoin:round;" cx="514.5" cy="151.3" r="33.3"/>
	</g>
	<g style="opacity:0.5;">
		<circle style="fill:#E5FCC2;" cx="857.5" cy="77.3" r="33.3"/>
		
			<circle style="opacity:0.2;fill:none;stroke:#000000;stroke-linecap:round;stroke-linejoin:round;" cx="857.5" cy="77.3" r="33.3"/>
		
			<circle style="opacity:0.25;fill:none;stroke:#709CD2;stroke-width:6;stroke-linecap:round;stroke-linejoin:round;" cx="857.5" cy="77.3" r="33.3"/>
		
			<circle style="opacity:0.3;fill:none;stroke:#5E93CD;stroke-width:5;stroke-linecap:round;stroke-linejoin:round;" cx="857.5" cy="77.3" r="33.3"/>
		
			<circle style="fill:none;stroke:#0073BC;stroke-width:4;stroke-linecap:round;stroke-linejoin:round;" cx="857.5" cy="77.3" r="33.3"/>
		
			<circle style="fill:none;stroke:#3081C4;stroke-width:3.25;stroke-linecap:round;stroke-linejoin:round;" cx="857.5" cy="77.3" r="33.3"/>
		
			<circle style="fill:none;stroke:#578FCB;stroke-width:2.5;stroke-linecap:round;stroke-linejoin:round;" cx="857.5" cy="77.3" r="33.3"/>
		
			<circle style="fill:none;stroke:#7EA4D6;stroke-width:1.65;stroke-linecap:round;stroke-linejoin:round;" cx="857.5" cy="77.3" r="33.3"/>
		
			<circle style="fill:none;stroke:#000000;stroke-width:0.65;stroke-linecap:round;stroke-linejoin:round;" cx="857.5" cy="77.3" r="33.3"/>
	</g>
	<g style="opacity:0.5;">
		<circle style="fill:#E5FCC2;" cx="857.5" cy="226.3" r="33.3"/>
		
			<circle style="opacity:0.2;fill:none;stroke:#000000;stroke-linecap:round;stroke-linejoin:round;" cx="857.5" cy="226.3" r="33.3"/>
		
			<circle style="opacity:0.25;fill:none;stroke:#709CD2;stroke-width:6;stroke-linecap:round;stroke-linejoin:round;" cx="857.5" cy="226.3" r="33.3"/>
		
			<circle style="opacity:0.3;fill:none;stroke:#5E93CD;stroke-width:5;stroke-linecap:round;stroke-linejoin:round;" cx="857.5" cy="226.3" r="33.3"/>
		
			<circle style="fill:none;stroke:#0073BC;stroke-width:4;stroke-linecap:round;stroke-linejoin:round;" cx="857.5" cy="226.3" r="33.3"/>
		
			<circle style="fill:none;stroke:#3081C4;stroke-width:3.25;stroke-linecap:round;stroke-linejoin:round;" cx="857.5" cy="226.3" r="33.3"/>
		
			<circle style="fill:none;stroke:#578FCB;stroke-width:2.5;stroke-linecap:round;stroke-linejoin:round;" cx="857.5" cy="226.3" r="33.3"/>
		
			<circle style="fill:none;stroke:#7EA4D6;stroke-width:1.65;stroke-linecap:round;stroke-linejoin:round;" cx="857.5" cy="226.3" r="33.3"/>
		
			<circle style="fill:none;stroke:#000000;stroke-width:0.65;stroke-linecap:round;stroke-linejoin:round;" cx="857.5" cy="226.3" r="33.3"/>
	</g>
</g>
<g id="Letters">
	<text transform="matrix(1 0 0 1 23.4245 51.1997)" style="font-family:'MyriadPro-Regular'; font-size:36;">G</text>
	<text transform="matrix(1 0 0 1 23.4244 126.6167)" style="font-family:'MyriadPro-Regular'; font-size:36;">D</text>
	<text transform="matrix(1 0 0 1 22.9412 199.6743)" style="font-family:'MyriadPro-Regular'; font-size:36;">A</text>
	<text transform="matrix(1 0 0 1 23.8654 277.5772)" style="font-family:'MyriadPro-Regular'; font-size:36;">E</text>
	<text transform="matrix(1 0 0 1 83.8557 50.9778)" style="font-family:'MyriadPro-Regular'; font-size:36;">G#</text>
	<text transform="matrix(1 0 0 1 288.8583 277.3555)" style="font-family:'MyriadPro-Regular'; font-size:36;">G#</text>
	<text transform="matrix(1 0 0 1 83.8556 126.3949)" style="font-family:'MyriadPro-Regular'; font-size:36;">D#</text>
	<text transform="matrix(1 0 0 1 83.8555 199.4527)" style="font-family:'MyriadPro-Regular'; font-size:36;">Bb</text>
	<text transform="matrix(1 0 0 1 92.987 277.3553)" style="font-family:'MyriadPro-Regular'; font-size:36;">F</text>
	<text transform="matrix(1 0 0 1 160.2453 50.978)" style="font-family:'MyriadPro-Regular'; font-size:36;">A</text>
	<text transform="matrix(1 0 0 1 160.2453 126.395)" style="font-family:'MyriadPro-Regular'; font-size:36;">E</text>
	<text transform="matrix(1 0 0 1 159.7621 199.4526)" style="font-family:'MyriadPro-Regular'; font-size:36;">B</text>
	<text transform="matrix(1 0 0 1 299.8861 50.9782)" style="font-family:'MyriadPro-Regular'; font-size:36;">B</text>
	<text transform="matrix(1 0 0 1 154.1205 277.3555)" style="font-family:'MyriadPro-Regular'; font-size:36;">F#</text>
	<text transform="matrix(1 0 0 1 289.8582 126.3947)" style="font-family:'MyriadPro-Regular'; font-size:36;">F#</text>
	<text transform="matrix(1 0 0 1 220.5796 50.9779)" style="font-family:'MyriadPro-Regular'; font-size:36;">Bb</text>
	<text transform="matrix(1 0 0 1 707.9622 199.4525)" style="font-family:'MyriadPro-Regular'; font-size:36;">G</text>
	<text transform="matrix(1 0 0 1 768.8555 199.4523)" style="font-family:'MyriadPro-Regular'; font-size:36;">G#</text>
	<text transform="matrix(1 0 0 1 846.3078 199.4523)" style="font-family:'MyriadPro-Regular'; font-size:36;">A</text>
	<text transform="matrix(1 0 0 1 906.5794 199.4525)" style="font-family:'MyriadPro-Regular'; font-size:36;">Bb</text>
	<text transform="matrix(1 0 0 1 229.4831 126.3947)" style="font-family:'MyriadPro-Regular'; font-size:36;">F</text>
	<text transform="matrix(1 0 0 1 365.9623 199.895)" style="font-family:'MyriadPro-Regular'; font-size:36;">D</text>
	<text transform="matrix(1 0 0 1 426.0972 199.8951)" style="font-family:'MyriadPro-Regular'; font-size:36;">D#</text>
	<text transform="matrix(1 0 0 1 505.3079 199.8948)" style="font-family:'MyriadPro-Regular'; font-size:36;">E</text>
	<text transform="matrix(1 0 0 1 632.8582 199.8947)" style="font-family:'MyriadPro-Regular'; font-size:36;">F#</text>
	<text transform="matrix(1 0 0 1 570.9661 199.895)" style="font-family:'MyriadPro-Regular'; font-size:36;">F</text>
	<text transform="matrix(1 0 0 1 707.9623 274.895)" style="font-family:'MyriadPro-Regular'; font-size:36;">D</text>
	<text transform="matrix(1 0 0 1 769.0972 274.8951)" style="font-family:'MyriadPro-Regular'; font-size:36;">D#</text>
	<text transform="matrix(1 0 0 1 847.3079 274.8948)" style="font-family:'MyriadPro-Regular'; font-size:36;">E</text>
	<text transform="matrix(1 0 0 1 916.9987 274.8948)" style="font-family:'MyriadPro-Regular'; font-size:36;">F</text>
	<text transform="matrix(1 0 0 1 227.4828 199.4526)" style="font-family:'MyriadPro-Regular'; font-size:36;">C</text>
	<text transform="matrix(1 0 0 1 288.8582 199.4528)" style="font-family:'MyriadPro-Regular'; font-size:36;">C#</text>
	<text transform="matrix(1 0 0 1 845.3077 50.7574)" style="font-family:'MyriadPro-Regular'; font-size:36;">G</text>
	<text transform="matrix(1 0 0 1 905.0944 50.7572)" style="font-family:'MyriadPro-Regular'; font-size:36;">G#</text>
	<text transform="matrix(1 0 0 1 502.2012 51.1998)" style="font-family:'MyriadPro-Regular'; font-size:36;">D</text>
	<text transform="matrix(1 0 0 1 561.644 51.1998)" style="font-family:'MyriadPro-Regular'; font-size:36;">D#</text>
	<text transform="matrix(1 0 0 1 641.5468 51.1996)" style="font-family:'MyriadPro-Regular'; font-size:36;">E</text>
	<text transform="matrix(1 0 0 1 769.0971 51.1996)" style="font-family:'MyriadPro-Regular'; font-size:36;">F#</text>
	<text transform="matrix(1 0 0 1 709.205 51.1998)" style="font-family:'MyriadPro-Regular'; font-size:36;">F</text>
	<text transform="matrix(1 0 0 1 365.7217 50.7574)" style="font-family:'MyriadPro-Regular'; font-size:36;">C</text>
	<text transform="matrix(1 0 0 1 426.0971 50.7576)" style="font-family:'MyriadPro-Regular'; font-size:36;">C#</text>
	<text transform="matrix(1 0 0 1 367.0289 276.5321)" style="font-family:'MyriadPro-Regular'; font-size:36;">A</text>
	<text transform="matrix(1 0 0 1 428.4054 276.5322)" style="font-family:'MyriadPro-Regular'; font-size:36;">Bb</text>
	<text transform="matrix(1 0 0 1 505.3074 276.532)" style="font-family:'MyriadPro-Regular'; font-size:36;">B</text>
	<text transform="matrix(1 0 0 1 570.9656 276.5321)" style="font-family:'MyriadPro-Regular'; font-size:36;">C</text>
	<text transform="matrix(1 0 0 1 633.4081 276.5323)" style="font-family:'MyriadPro-Regular'; font-size:36;">C#</text>
	<text transform="matrix(1 0 0 1 227.4828 277.3554)" style="font-family:'MyriadPro-Regular'; font-size:36;">G</text>
	<text transform="matrix(1 0 0 1 426.0972 127.6249)" style="font-family:'MyriadPro-Regular'; font-size:36;">G#</text>
	<text transform="matrix(1 0 0 1 845.2012 127.1647)" style="font-family:'MyriadPro-Regular'; font-size:36;">D</text>
	<text transform="matrix(1 0 0 1 906.0945 127.1646)" style="font-family:'MyriadPro-Regular'; font-size:36;">D#</text>
	<text transform="matrix(1 0 0 1 503.2678 126.8019)" style="font-family:'MyriadPro-Regular'; font-size:36;">A</text>
	<text transform="matrix(1 0 0 1 562.6443 126.802)" style="font-family:'MyriadPro-Regular'; font-size:36;">Bb</text>
	<text transform="matrix(1 0 0 1 641.5469 126.8016)" style="font-family:'MyriadPro-Regular'; font-size:36;">B</text>
	<text transform="matrix(1 0 0 1 707.2716 126.8019)" style="font-family:'MyriadPro-Regular'; font-size:36;">C</text>
	<text transform="matrix(1 0 0 1 768.647 126.8021)" style="font-family:'MyriadPro-Regular'; font-size:36;">C#</text>
	<text transform="matrix(1 0 0 1 366.0291 127.6251)" style="font-family:'MyriadPro-Regular'; font-size:36;">G</text>
</g>
<g id="Numbers" style="display:none;">
	<text transform="matrix(1 0 0 1 25.4759 274.2854)" style="display:inline; font-family:'MyriadPro-Regular'; font-size:36;">0</text>
	<text transform="matrix(1 0 0 1 297.6831 274.2852)" style="display:inline; font-family:'MyriadPro-Regular'; font-size:36;">4</text>
	<text transform="matrix(1 0 0 1 91.9731 275.0185)" style="display:inline; font-family:'MyriadPro-Regular'; font-size:36;">1</text>
	<text transform="matrix(1 0 0 1 163.2962 274.2853)" style="display:inline; font-family:'MyriadPro-Regular'; font-size:36;">2</text>
	<text transform="matrix(1 0 0 1 703.1985 275.0187)" style="display:inline; font-family:'MyriadPro-Regular'; font-size:36;">10</text>
	<text transform="matrix(1 0 0 1 771.4393 275.4512)" style="display:inline; font-family:'MyriadPro-Regular'; font-size:36;">11</text>
	<text transform="matrix(1 0 0 1 840.0087 275.0187)" style="display:inline; font-family:'MyriadPro-Regular'; font-size:36;">12</text>
	<text transform="matrix(1 0 0 1 908.5786 275.0183)" style="display:inline; font-family:'MyriadPro-Regular'; font-size:36;">13</text>
	<text transform="matrix(1 0 0 1 369.5569 274.2853)" style="display:inline; font-family:'MyriadPro-Regular'; font-size:36;">5</text>
	<text transform="matrix(1 0 0 1 437.0257 274.2851)" style="display:inline; font-family:'MyriadPro-Regular'; font-size:36;">6</text>
	<text transform="matrix(1 0 0 1 505.5956 274.2853)" style="display:inline; font-family:'MyriadPro-Regular'; font-size:36;">7</text>
	<text transform="matrix(1 0 0 1 573.4879 274.285)" style="display:inline; font-family:'MyriadPro-Regular'; font-size:36;">8</text>
	<text transform="matrix(1 0 0 1 642.0858 274.2849)" style="display:inline; font-family:'MyriadPro-Regular'; font-size:36;">9</text>
	<text transform="matrix(1 0 0 1 231.8664 274.2853)" style="display:inline; font-family:'MyriadPro-Regular'; font-size:36;">3</text>
	<text transform="matrix(1 0 0 1 25.4758 200.044)" style="display:inline; font-family:'MyriadPro-Regular'; font-size:36;">0</text>
	<text transform="matrix(1 0 0 1 297.6831 200.0438)" style="display:inline; font-family:'MyriadPro-Regular'; font-size:36;">4</text>
	<text transform="matrix(1 0 0 1 91.9731 200.7771)" style="display:inline; font-family:'MyriadPro-Regular'; font-size:36;">1</text>
	<text transform="matrix(1 0 0 1 163.2962 200.0439)" style="display:inline; font-family:'MyriadPro-Regular'; font-size:36;">2</text>
	<text transform="matrix(1 0 0 1 703.1985 200.7772)" style="display:inline; font-family:'MyriadPro-Regular'; font-size:36;">10</text>
	<text transform="matrix(1 0 0 1 771.4393 201.2097)" style="display:inline; font-family:'MyriadPro-Regular'; font-size:36;">11</text>
	<text transform="matrix(1 0 0 1 840.0087 200.7773)" style="display:inline; font-family:'MyriadPro-Regular'; font-size:36;">12</text>
	<text transform="matrix(1 0 0 1 908.5786 200.7769)" style="display:inline; font-family:'MyriadPro-Regular'; font-size:36;">13</text>
	<text transform="matrix(1 0 0 1 369.5568 200.0439)" style="display:inline; font-family:'MyriadPro-Regular'; font-size:36;">5</text>
	<text transform="matrix(1 0 0 1 437.0256 200.0437)" style="display:inline; font-family:'MyriadPro-Regular'; font-size:36;">6</text>
	<text transform="matrix(1 0 0 1 505.5956 200.0439)" style="display:inline; font-family:'MyriadPro-Regular'; font-size:36;">7</text>
	<text transform="matrix(1 0 0 1 573.4879 200.0435)" style="display:inline; font-family:'MyriadPro-Regular'; font-size:36;">8</text>
	<text transform="matrix(1 0 0 1 642.0858 200.0435)" style="display:inline; font-family:'MyriadPro-Regular'; font-size:36;">9</text>
	<text transform="matrix(1 0 0 1 231.8664 200.0438)" style="display:inline; font-family:'MyriadPro-Regular'; font-size:36;">3</text>
	<text transform="matrix(1 0 0 1 25.4758 126.544)" style="display:inline; font-family:'MyriadPro-Regular'; font-size:36;">0</text>
	<text transform="matrix(1 0 0 1 297.6831 126.5438)" style="display:inline; font-family:'MyriadPro-Regular'; font-size:36;">4</text>
	<text transform="matrix(1 0 0 1 91.9731 127.2771)" style="display:inline; font-family:'MyriadPro-Regular'; font-size:36;">1</text>
	<text transform="matrix(1 0 0 1 163.2962 126.5439)" style="display:inline; font-family:'MyriadPro-Regular'; font-size:36;">2</text>
	<text transform="matrix(1 0 0 1 703.1985 127.2772)" style="display:inline; font-family:'MyriadPro-Regular'; font-size:36;">10</text>
	<text transform="matrix(1 0 0 1 771.4393 127.7097)" style="display:inline; font-family:'MyriadPro-Regular'; font-size:36;">11</text>
	<text transform="matrix(1 0 0 1 840.0087 127.2773)" style="display:inline; font-family:'MyriadPro-Regular'; font-size:36;">12</text>
	<text transform="matrix(1 0 0 1 908.5786 127.2769)" style="display:inline; font-family:'MyriadPro-Regular'; font-size:36;">13</text>
	<text transform="matrix(1 0 0 1 369.5568 126.5439)" style="display:inline; font-family:'MyriadPro-Regular'; font-size:36;">5</text>
	<text transform="matrix(1 0 0 1 437.0256 126.5437)" style="display:inline; font-family:'MyriadPro-Regular'; font-size:36;">6</text>
	<text transform="matrix(1 0 0 1 505.5956 126.5439)" style="display:inline; font-family:'MyriadPro-Regular'; font-size:36;">7</text>
	<text transform="matrix(1 0 0 1 573.4879 126.5436)" style="display:inline; font-family:'MyriadPro-Regular'; font-size:36;">8</text>
	<text transform="matrix(1 0 0 1 642.0858 126.5435)" style="display:inline; font-family:'MyriadPro-Regular'; font-size:36;">9</text>
	<text transform="matrix(1 0 0 1 231.8664 126.5438)" style="display:inline; font-family:'MyriadPro-Regular'; font-size:36;">3</text>
	<text transform="matrix(1 0 0 1 25.4758 51.1425)" style="display:inline; font-family:'MyriadPro-Regular'; font-size:36;">0</text>
	<text transform="matrix(1 0 0 1 297.683 51.1423)" style="display:inline; font-family:'MyriadPro-Regular'; font-size:36;">4</text>
	<text transform="matrix(1 0 0 1 91.973 51.8756)" style="display:inline; font-family:'MyriadPro-Regular'; font-size:36;">1</text>
	<text transform="matrix(1 0 0 1 163.2961 51.1424)" style="display:inline; font-family:'MyriadPro-Regular'; font-size:36;">2</text>
	<text transform="matrix(1 0 0 1 703.1985 51.8758)" style="display:inline; font-family:'MyriadPro-Regular'; font-size:36;">10</text>
	<text transform="matrix(1 0 0 1 771.4392 52.3083)" style="display:inline; font-family:'MyriadPro-Regular'; font-size:36;">11</text>
	<text transform="matrix(1 0 0 1 840.0086 51.8758)" style="display:inline; font-family:'MyriadPro-Regular'; font-size:36;">12</text>
	<text transform="matrix(1 0 0 1 908.5786 51.8754)" style="display:inline; font-family:'MyriadPro-Regular'; font-size:36;">13</text>
	<text transform="matrix(1 0 0 1 369.5568 51.1424)" style="display:inline; font-family:'MyriadPro-Regular'; font-size:36;">5</text>
	<text transform="matrix(1 0 0 1 437.0256 51.1422)" style="display:inline; font-family:'MyriadPro-Regular'; font-size:36;">6</text>
	<text transform="matrix(1 0 0 1 505.5956 51.1424)" style="display:inline; font-family:'MyriadPro-Regular'; font-size:36;">7</text>
	<text transform="matrix(1 0 0 1 573.4879 51.1421)" style="display:inline; font-family:'MyriadPro-Regular'; font-size:36;">8</text>
	<text transform="matrix(1 0 0 1 642.0858 51.142)" style="display:inline; font-family:'MyriadPro-Regular'; font-size:36;">9</text>
	<text transform="matrix(1 0 0 1 231.8663 51.1424)" style="display:inline; font-family:'MyriadPro-Regular'; font-size:36;">3</text>
</g>
</svg>
