<?xml version="1.0" encoding="utf-8"?>
<!-- Generator: Adobe Illustrator 18.0.0, SVG Export Plug-In . SVG Version: 6.00 Build 0)  -->
<!DOCTYPE svg PUBLIC "-//W3C//DTD SVG 1.1//EN" "http://www.w3.org/Graphics/SVG/1.1/DTD/svg11.dtd">
<svg version="1.1" xmlns="http://www.w3.org/2000/svg" xmlns:xlink="http://www.w3.org/1999/xlink" x="0px" y="0px"
	 viewBox="0 0 960 300" style="enable-background:new 0 0 960 300;" xml:space="preserve">
<g id="Layer_3">
	<rect x="-0.5" y="2.5" style="fill:#E5FCC2;" width="960" height="300"/>
</g>
<g id="Layer_1">
	<g>
		<rect x="-0.5" y="2.5" style="fill:none;stroke:#000000;stroke-width:5;stroke-miterlimit:10;" width="960" height="300"/>
		<line style="fill:none;stroke:#000000;stroke-width:5;stroke-miterlimit:10;" x1="891.5" y1="0" x2="891.5" y2="300"/>
		<line style="fill:none;stroke:#000000;stroke-width:5;stroke-miterlimit:10;" x1="822.5" y1="0" x2="822.5" y2="300"/>
		<line style="fill:none;stroke:#000000;stroke-width:5;stroke-miterlimit:10;" x1="754.5" y1="0" x2="754.5" y2="300"/>
		<line style="fill:none;stroke:#000000;stroke-width:5;stroke-miterlimit:10;" x1="685.5" y1="0" x2="685.5" y2="300"/>
		<line style="fill:none;stroke:#000000;stroke-width:5;stroke-miterlimit:10;" x1="617.5" y1="0" x2="617.5" y2="300"/>
		<line style="fill:none;stroke:#000000;stroke-width:5;stroke-miterlimit:10;" x1="548.5" y1="0" x2="548.5" y2="300"/>
		<line style="fill:none;stroke:#000000;stroke-width:5;stroke-miterlimit:10;" x1="479.5" y1="0" x2="479.5" y2="300"/>
		<line style="fill:none;stroke:#000000;stroke-width:5;stroke-miterlimit:10;" x1="411.5" y1="0" x2="411.5" y2="300"/>
		<line style="fill:none;stroke:#000000;stroke-width:5;stroke-miterlimit:10;" x1="342.5" y1="0" x2="342.5" y2="300"/>
		<line style="fill:none;stroke:#000000;stroke-width:5;stroke-miterlimit:10;" x1="274.5" y1="0" x2="274.5" y2="300"/>
		<line style="fill:none;stroke:#000000;stroke-width:5;stroke-miterlimit:10;" x1="205.5" y1="0" x2="205.5" y2="300"/>
		<line style="fill:none;stroke:#000000;stroke-width:5;stroke-miterlimit:10;" x1="137.5" y1="0" x2="137.5" y2="300"/>
		<line style="fill:none;stroke:#000000;stroke-width:5;stroke-miterlimit:10;" x1="68.5" y1="0" x2="68.5" y2="300"/>
	</g>
	<rect x="46.2" y="2.5" style="stroke:#000000;stroke-width:5;stroke-miterlimit:10;" width="45.1" height="200.3"/>
	<rect x="115" y="2.5" style="stroke:#000000;stroke-width:5;stroke-miterlimit:10;" width="45.1" height="200.3"/>
	<rect x="252" y="2.5" style="stroke:#000000;stroke-width:5;stroke-miterlimit:10;" width="45.1" height="200.3"/>
	<rect x="320" y="2.5" style="stroke:#000000;stroke-width:5;stroke-miterlimit:10;" width="45.1" height="200.3"/>
	<rect x="389" y="2.5" style="stroke:#000000;stroke-width:5;stroke-miterlimit:10;" width="45.1" height="200.3"/>
	<rect x="526" y="2.5" style="stroke:#000000;stroke-width:5;stroke-miterlimit:10;" width="45.1" height="200.3"/>
	<rect x="595" y="2.5" style="stroke:#000000;stroke-width:5;stroke-miterlimit:10;" width="45.1" height="200.3"/>
	<rect x="732" y="2.5" style="stroke:#000000;stroke-width:5;stroke-miterlimit:10;" width="45.1" height="200.3"/>
	<rect x="800" y="2.5" style="stroke:#000000;stroke-width:5;stroke-miterlimit:10;" width="45.1" height="200.3"/>
	<rect x="869" y="2.5" style="stroke:#000000;stroke-width:5;stroke-miterlimit:10;" width="45.1" height="200.3"/>
</g>
<g id="Letters">
	<rect x="22.4" y="234.4" style="fill:none;" width="32.5" height="46.7"/>
	<text transform="matrix(1 0 0 1 22.4015 259.927)" style="font-family:'MyriadPro-Regular'; font-size:36;">C</text>
	<rect x="91.2" y="234.4" style="fill:none;" width="32.5" height="46.7"/>
	<text transform="matrix(1 0 0 1 91.2323 259.927)" style="font-family:'MyriadPro-Regular'; font-size:36;">D</text>
	<rect x="160" y="234.4" style="fill:none;" width="32.5" height="46.7"/>
	<text transform="matrix(1 0 0 1 160.0315 259.927)" style="font-family:'MyriadPro-Regular'; font-size:36;">E</text>
	<rect x="229.3" y="234.4" style="fill:none;" width="32.5" height="46.7"/>
	<text transform="matrix(1 0 0 1 229.3181 259.927)" style="font-family:'MyriadPro-Regular'; font-size:36;">F</text>
	<rect x="297" y="234.4" style="fill:none;" width="32.5" height="46.7"/>
	<text transform="matrix(1 0 0 1 297.0315 259.927)" style="font-family:'MyriadPro-Regular'; font-size:36;">G</text>
	<rect x="365" y="234.4" style="fill:none;" width="32.5" height="46.7"/>
	<text transform="matrix(1 0 0 1 365.0315 259.927)" style="font-family:'MyriadPro-Regular'; font-size:36;">A</text>
	<rect x="434" y="234.4" style="fill:none;" width="32.5" height="46.7"/>
	<text transform="matrix(1 0 0 1 434.0315 259.927)" style="font-family:'MyriadPro-Regular'; font-size:36;">B</text>
	<rect x="502" y="234.4" style="fill:none;" width="32.5" height="46.7"/>
	<text transform="matrix(1 0 0 1 502.0052 259.927)" style="font-family:'MyriadPro-Regular'; font-size:36;">C</text>
	<rect x="570.8" y="234.4" style="fill:none;" width="32.5" height="46.7"/>
	<text transform="matrix(1 0 0 1 570.8361 259.927)" style="font-family:'MyriadPro-Regular'; font-size:36;">D</text>
	<rect x="639.6" y="234.4" style="fill:none;" width="32.5" height="46.7"/>
	<text transform="matrix(1 0 0 1 639.6353 259.927)" style="font-family:'MyriadPro-Regular'; font-size:36;">E</text>
	<rect x="708.9" y="234.4" style="fill:none;" width="32.5" height="46.7"/>
	<text transform="matrix(1 0 0 1 708.9219 259.927)" style="font-family:'MyriadPro-Regular'; font-size:36;">F</text>
	<rect x="776.6" y="234.4" style="fill:none;" width="32.5" height="46.7"/>
	<text transform="matrix(1 0 0 1 776.6353 259.927)" style="font-family:'MyriadPro-Regular'; font-size:36;">G</text>
	<rect x="844.6" y="234.4" style="fill:none;" width="32.5" height="46.7"/>
	<text transform="matrix(1 0 0 1 844.6353 259.927)" style="font-family:'MyriadPro-Regular'; font-size:36;">A</text>
	<rect x="913.6" y="234.4" style="fill:none;" width="32.5" height="46.7"/>
	<text transform="matrix(1 0 0 1 913.6353 259.927)" style="font-family:'MyriadPro-Regular'; font-size:36;">B</text>
	<rect x="46.2" y="19.3" style="fill:none;" width="60.1" height="46.7"/>
	<text transform="matrix(1 0 0 1 46.1691 44.8274)" style="fill:#E5FCC2; font-family:'MyriadPro-Regular'; font-size:36;">C#</text>
	<rect x="46.2" y="66" style="fill:none;" width="60.1" height="46.7"/>
	<text transform="matrix(1 0 0 1 46.1691 91.5603)" style="fill:#E5FCC2; font-family:'MyriadPro-Regular'; font-size:36;">Db</text>
	<rect x="115" y="19.3" style="fill:none;" width="60.1" height="46.7"/>
	<text transform="matrix(1 0 0 1 114.9684 44.8274)" style="fill:#E5FCC2; font-family:'MyriadPro-Regular'; font-size:36;">D#</text>
	<rect x="115" y="66" style="fill:none;" width="60.1" height="46.7"/>
	<text transform="matrix(1 0 0 1 114.9684 91.5603)" style="fill:#E5FCC2; font-family:'MyriadPro-Regular'; font-size:36;">Eb</text>
	<rect x="252" y="19.3" style="fill:none;" width="60.1" height="46.7"/>
	<text transform="matrix(1 0 0 1 251.9684 44.8274)" style="fill:#E5FCC2; font-family:'MyriadPro-Regular'; font-size:36;">F#</text>
	<rect x="252" y="66" style="fill:none;" width="60.1" height="46.7"/>
	<text transform="matrix(1 0 0 1 251.9684 91.5603)" style="fill:#E5FCC2; font-family:'MyriadPro-Regular'; font-size:36;">Gb</text>
	<rect x="320" y="19.3" style="fill:none;" width="60.1" height="46.7"/>
	<text transform="matrix(1 0 0 1 319.9684 44.8274)" style="fill:#E5FCC2; font-family:'MyriadPro-Regular'; font-size:36;">G#</text>
	<rect x="320" y="66" style="fill:none;" width="60.1" height="46.7"/>
	<text transform="matrix(1 0 0 1 319.9684 91.5603)" style="fill:#E5FCC2; font-family:'MyriadPro-Regular'; font-size:36;">Ab</text>
	<rect x="389" y="19.3" style="fill:none;" width="60.1" height="46.7"/>
	<text transform="matrix(1 0 0 1 388.9684 44.8274)" style="fill:#E5FCC2; font-family:'MyriadPro-Regular'; font-size:36;">A#</text>
	<rect x="389" y="66" style="fill:none;" width="60.1" height="46.7"/>
	<text transform="matrix(1 0 0 1 388.9684 91.5603)" style="fill:#E5FCC2; font-family:'MyriadPro-Regular'; font-size:36;">Bb</text>
	<rect x="526.7" y="19.3" style="fill:none;" width="60.1" height="46.7"/>
	<text transform="matrix(1 0 0 1 526.6923 44.8274)" style="fill:#E5FCC2; font-family:'MyriadPro-Regular'; font-size:36;">C#</text>
	<rect x="526.7" y="66" style="fill:none;" width="60.1" height="46.7"/>
	<text transform="matrix(1 0 0 1 526.6923 91.5603)" style="fill:#E5FCC2; font-family:'MyriadPro-Regular'; font-size:36;">Db</text>
	<rect x="595.5" y="19.3" style="fill:none;" width="60.1" height="46.7"/>
	<text transform="matrix(1 0 0 1 595.4915 44.8274)" style="fill:#E5FCC2; font-family:'MyriadPro-Regular'; font-size:36;">D#</text>
	<rect x="595.5" y="66" style="fill:none;" width="60.1" height="46.7"/>
	<text transform="matrix(1 0 0 1 595.4915 91.5603)" style="fill:#E5FCC2; font-family:'MyriadPro-Regular'; font-size:36;">Eb</text>
	<rect x="732.5" y="19.3" style="fill:none;" width="60.1" height="46.7"/>
	<text transform="matrix(1 0 0 1 732.4915 44.8274)" style="fill:#E5FCC2; font-family:'MyriadPro-Regular'; font-size:36;">F#</text>
	<rect x="732.5" y="66" style="fill:none;" width="60.1" height="46.7"/>
	<text transform="matrix(1 0 0 1 732.4915 91.5603)" style="fill:#E5FCC2; font-family:'MyriadPro-Regular'; font-size:36;">Gb</text>
	<rect x="800.5" y="19.3" style="fill:none;" width="60.1" height="46.7"/>
	<text transform="matrix(1 0 0 1 800.4915 44.8274)" style="fill:#E5FCC2; font-family:'MyriadPro-Regular'; font-size:36;">G#</text>
	<rect x="800.5" y="66" style="fill:none;" width="60.1" height="46.7"/>
	<text transform="matrix(1 0 0 1 800.4915 91.5603)" style="fill:#E5FCC2; font-family:'MyriadPro-Regular'; font-size:36;">Ab</text>
	<rect x="869.5" y="19.3" style="fill:none;" width="60.1" height="46.7"/>
	<text transform="matrix(1 0 0 1 869.4915 44.8274)" style="fill:#E5FCC2; font-family:'MyriadPro-Regular'; font-size:36;">A#</text>
	<rect x="869.5" y="66" style="fill:none;" width="60.1" height="46.7"/>
	<text transform="matrix(1 0 0 1 869.4915 91.5603)" style="fill:#E5FCC2; font-family:'MyriadPro-Regular'; font-size:36;">Bb</text>
</g>
</svg>
