<?xml version="1.0" encoding="UTF-8" standalone="no"?>
<!-- Created with Inkscape (http://www.inkscape.org/) -->
<svg
   xmlns:svg="http://www.w3.org/2000/svg"
   xmlns="http://www.w3.org/2000/svg"
   version="1.0"
   width="92.760002"
   height="49.919998"
   id="svg1738">
  <defs
     id="defs1741" />
  <g
     transform="matrix(-1.000014,0,0,-1.000014,247.8341,258.8578)"
     id="g2971">
    <path
       d="M 237.68484,218.18353 C 234.289,220.0035 232.47956,223.29808 233.59262,225.77649 C 234.77988,228.42013 238.85963,229.16621 242.6992,227.44186 C 246.53876,225.7175 248.69136,222.17246 247.5041,219.52883 C 246.31683,216.88519 242.23709,216.13911 238.39752,217.86346 C 238.15755,217.97123 237.91124,218.0622 237.68484,218.18353 z M 238.79457,220.42569 C 239.0358,220.30136 239.28005,220.20766 239.53576,220.09282 C 242.80883,218.62288 245.96997,218.55375 246.59187,219.93851 C 247.21377,221.32327 245.06209,223.64013 241.78902,225.11008 C 238.51594,226.58002 235.3548,226.64915 234.73291,225.26439 C 234.15959,223.98781 235.94804,221.89278 238.79457,220.42569 z "
       style="opacity:0.9;fill:#000000;fill-opacity:1;fill-rule:evenodd;stroke:none;stroke-width:0.2;stroke-miterlimit:4;stroke-dasharray:none;stroke-dashoffset:0;stroke-opacity:1"
       id="path2973" />
    <path
       d="M 234.05234,224.51692 L 234.05234,258.10449"
       style="fill:none;fill-opacity:0.75;fill-rule:evenodd;stroke:#000000;stroke-width:1.5;stroke-linecap:butt;stroke-linejoin:miter;stroke-miterlimit:4;stroke-dasharray:none;stroke-opacity:1"
       id="path2975" />
  </g>
  <g
     transform="matrix(-1.000014,0,0,-1.000014,277.749,258.8578)"
     id="g10997">
    <path
       d="M 237.68484,218.18353 C 234.289,220.0035 232.47956,223.29808 233.59262,225.77649 C 234.77988,228.42013 238.85963,229.16621 242.6992,227.44186 C 246.53876,225.7175 248.69136,222.17246 247.5041,219.52883 C 246.31683,216.88519 242.23709,216.13911 238.39752,217.86346 C 238.15755,217.97123 237.91124,218.0622 237.68484,218.18353 z M 238.79457,220.42569 C 239.0358,220.30136 239.28005,220.20766 239.53576,220.09282 C 242.80883,218.62288 245.96997,218.55375 246.59187,219.93851 C 247.21377,221.32327 245.06209,223.64013 241.78902,225.11008 C 238.51594,226.58002 235.3548,226.64915 234.73291,225.26439 C 234.15959,223.98781 235.94804,221.89278 238.79457,220.42569 z "
       style="opacity:0.9;fill:#000000;fill-opacity:1;fill-rule:evenodd;stroke:none;stroke-width:0.2;stroke-miterlimit:4;stroke-dasharray:none;stroke-dashoffset:0;stroke-opacity:1"
       id="path10999" />
    <path
       d="M 234.05234,224.51692 L 234.05234,258.10449"
       style="fill:none;fill-opacity:0.75;fill-rule:evenodd;stroke:#000000;stroke-width:1.5;stroke-linecap:butt;stroke-linejoin:miter;stroke-miterlimit:4;stroke-dasharray:none;stroke-opacity:1"
       id="path11001" />
  </g>
  <path
     d="M 36.836148,43.979598 C 36.836148,43.979598 29.120329,47.461498 22.756157,47.461498 C 16.825274,47.461498 9.604034,43.855298 9.604034,43.855298 C 9.604034,43.855298 16.453815,49.919998 22.784847,49.919998 C 29.115889,49.919998 36.836148,43.979598 36.836148,43.979598 z "
     style="fill:#000000;fill-opacity:1;fill-rule:evenodd;stroke:none;stroke-width:1px;stroke-linecap:butt;stroke-linejoin:miter;stroke-opacity:1"
     id="path2088" />
  <text
     x="54.165699"
     y="43.588924"
     style="font-size:24px;font-style:normal;font-variant:normal;font-weight:bold;font-stretch:normal;text-align:start;line-height:125%;writing-mode:lr-tb;text-anchor:start;fill:#000000;fill-opacity:1;stroke:none;stroke-width:1px;stroke-linecap:butt;stroke-linejoin:miter;stroke-opacity:1;font-family:Times New Roman"
     id="text2963"
     xml:space="preserve"><tspan
       x="54.165699"
       y="43.588924"
       id="tspan2965">=</tspan></text>
  <path
     d="M 82.382178,30.919998 C 77.291458,31.102208 73.257178,33.502588 73.257178,36.419998 C 73.257178,39.455998 77.625178,41.919998 83.007178,41.919998 C 88.389178,41.919998 92.757178,39.455998 92.757178,36.419998 C 92.757178,33.383998 88.389178,30.919998 83.007178,30.919998 C 82.796948,30.919998 82.589118,30.912588 82.382178,30.919998 z M 80.757178,31.982498 C 82.115078,31.843488 83.825158,32.473128 85.257178,33.763748 C 87.402198,35.696958 88.128398,38.407568 86.882178,39.826248 L 86.850928,39.857498 C 85.580068,41.267598 82.788628,40.832268 80.632178,38.888748 C 78.475728,36.945228 77.767568,34.205098 79.038428,32.794998 C 79.465358,32.321298 80.070238,32.052818 80.757178,31.982498 z "
     style="opacity:0.9;fill:#000000;fill-opacity:1;fill-rule:nonzero;stroke:none;stroke-width:0.2;stroke-miterlimit:4;stroke-dasharray:none;stroke-dashoffset:0;stroke-opacity:1"
     id="path3937" />
</svg>
