<?xml version="1.0" encoding="UTF-8" standalone="no"?>
<!-- Created with Inkscape (http://www.inkscape.org/) -->
<svg
   xmlns:svg="http://www.w3.org/2000/svg"
   xmlns="http://www.w3.org/2000/svg"
   version="1.0"
   width="90.209999"
   height="49.919998"
   id="svg1738">
  <defs
     id="defs1741" />
  <g
     transform="matrix(-1.000014,0,0,-1.000014,323.4733,258.8578)"
     id="g10997">
    <path
       d="M 237.68484,218.18353 C 234.289,220.0035 232.47956,223.29808 233.59262,225.77649 C 234.77988,228.42013 238.85963,229.16621 242.6992,227.44186 C 246.53876,225.7175 248.69136,222.17246 247.5041,219.52883 C 246.31683,216.88519 242.23709,216.13911 238.39752,217.86346 C 238.15755,217.97123 237.91124,218.0622 237.68484,218.18353 z M 238.79457,220.42569 C 239.0358,220.30136 239.28005,220.20766 239.53576,220.09282 C 242.80883,218.62288 245.96997,218.55375 246.59187,219.93851 C 247.21377,221.32327 245.06209,223.64013 241.78902,225.11008 C 238.51594,226.58002 235.3548,226.64915 234.73291,225.26439 C 234.15959,223.98781 235.94804,221.89278 238.79457,220.42569 z "
       style="opacity:0.9;fill:#000000;fill-opacity:1;fill-rule:evenodd;stroke:none;stroke-width:0.2;stroke-miterlimit:4;stroke-dasharray:none;stroke-dashoffset:0;stroke-opacity:1"
       id="path10999" />
    <path
       d="M 234.05234,224.51692 L 234.05234,258.10449"
       style="fill:none;fill-opacity:0.75;fill-rule:evenodd;stroke:#000000;stroke-width:1.5;stroke-linecap:butt;stroke-linejoin:miter;stroke-miterlimit:4;stroke-dasharray:none;stroke-opacity:1"
       id="path11001" />
  </g>
  <g
     transform="matrix(-1.000014,0,0,-1.000014,313.2873,340.3268)"
     id="g11029">
    <path
       d="M 303.13715,299.65106 C 299.74131,301.47103 297.93187,304.76561 299.04493,307.24402 C 300.23219,309.88766 304.31194,310.63374 308.15151,308.90939 C 311.99107,307.18503 314.14367,303.63999 312.95641,300.99636 C 311.76914,298.35272 307.6894,297.60664 303.84983,299.33099 C 303.60986,299.43876 303.36355,299.52973 303.13715,299.65106 z "
       style="opacity:0.9;fill:#000000;fill-opacity:1;fill-rule:evenodd;stroke:none;stroke-width:0.2;stroke-miterlimit:4;stroke-dashoffset:0;stroke-opacity:1"
       id="path11031" />
    <path
       d="M 299.50465,305.98445 L 299.50465,339.57202"
       style="fill:none;fill-opacity:0.75;fill-rule:evenodd;stroke:#000000;stroke-width:1.5;stroke-linecap:butt;stroke-linejoin:miter;stroke-miterlimit:4;stroke-dasharray:none;stroke-opacity:1"
       id="path11033" />
  </g>
  <g
     transform="matrix(-1.000014,0,0,-1.000014,343.3243,340.3268)"
     id="g1751">
    <path
       d="M 303.13715,299.65106 C 299.74131,301.47103 297.93187,304.76561 299.04493,307.24402 C 300.23219,309.88766 304.31194,310.63374 308.15151,308.90939 C 311.99107,307.18503 314.14367,303.63999 312.95641,300.99636 C 311.76914,298.35272 307.6894,297.60664 303.84983,299.33099 C 303.60986,299.43876 303.36355,299.52973 303.13715,299.65106 z "
       style="opacity:0.9;fill:#000000;fill-opacity:1;fill-rule:evenodd;stroke:none;stroke-width:0.2;stroke-miterlimit:4;stroke-dashoffset:0;stroke-opacity:1"
       id="path1753" />
    <path
       d="M 299.50465,305.98445 L 299.50465,339.57202"
       style="fill:none;fill-opacity:0.75;fill-rule:evenodd;stroke:#000000;stroke-width:1.5;stroke-linecap:butt;stroke-linejoin:miter;stroke-miterlimit:4;stroke-dasharray:none;stroke-opacity:1"
       id="path1755" />
  </g>
  <path
     d="M 36.836148,43.979598 C 36.836148,43.979598 29.120329,47.461498 22.756157,47.461498 C 16.825274,47.461498 9.604034,43.855298 9.604034,43.855298 C 9.604034,43.855298 16.453815,49.919998 22.784847,49.919998 C 29.115889,49.919998 36.836148,43.979598 36.836148,43.979598 z "
     style="fill:#000000;fill-opacity:1;fill-rule:evenodd;stroke:none;stroke-width:1px;stroke-linecap:butt;stroke-linejoin:miter;stroke-opacity:1"
     id="path2088" />
  <text
     x="54.165699"
     y="43.588924"
     style="font-size:24px;font-style:normal;font-variant:normal;font-weight:bold;font-stretch:normal;text-align:start;line-height:125%;writing-mode:lr-tb;text-anchor:start;fill:#000000;fill-opacity:1;stroke:none;stroke-width:1px;stroke-linecap:butt;stroke-linejoin:miter;stroke-opacity:1;font-family:Times New Roman"
     id="text2963"
     xml:space="preserve"><tspan
       x="54.165699"
       y="43.588924"
       id="tspan2965">=</tspan></text>
</svg>
