<?xml version="1.0" encoding="UTF-8" standalone="no"?>
<!-- Created with Inkscape (http://www.inkscape.org/) -->
<svg
   xmlns:svg="http://www.w3.org/2000/svg"
   xmlns="http://www.w3.org/2000/svg"
   xmlns:xlink="http://www.w3.org/1999/xlink"
   version="1.0"
   width="62"
   height="47.417999"
   viewBox="0 0 595.28 841.89"
   id="svg2">
  <defs
     id="defs4" />
  <g
     id="surface0">
    <g
       style="opacity:1;fill:#000000"
       id="g135">
      <use
         id="use137"
         x="28.346758"
         y="24.875366"
         width="595.28003"
         height="841.89001"
         xlink:href="#glyph0-0" />
    </g>
    <g
       transform="matrix(21.448997,0,0,21.449102,-1776.9901,-2779.9095)"
       id="g2598">
      <g
         transform="translate(1.0579308,-0.658065)"
         id="g2615">
        <path
           d="M 71.115008,160.788 L 120.21688,160.788"
           style="opacity:1;fill:none;stroke:#000000;stroke-width:0.02322397;stroke-linecap:round;stroke-linejoin:round;stroke-miterlimit:10"
           id="path199" />
        <path
           d="M 71.115008,155.80803 L 120.21688,155.80803"
           style="opacity:1;fill:none;stroke:#000000;stroke-width:0.02322397;stroke-linecap:round;stroke-linejoin:round;stroke-miterlimit:10"
           id="path201" />
        <path
           d="M 71.115008,150.82806 L 120.21688,150.82806"
           style="opacity:1;fill:none;stroke:#000000;stroke-width:0.02322397;stroke-linecap:round;stroke-linejoin:round;stroke-miterlimit:10"
           id="path203" />
        <path
           d="M 71.115008,145.8421 L 120.21688,145.8421"
           style="opacity:1;fill:none;stroke:#000000;stroke-width:0.02322397;stroke-linecap:round;stroke-linejoin:round;stroke-miterlimit:10"
           id="path205" />
        <path
           d="M 71.115008,140.86213 L 120.21688,140.86213"
           style="opacity:1;fill:none;stroke:#000000;stroke-width:0.02322397;stroke-linecap:round;stroke-linejoin:round;stroke-miterlimit:10"
           id="path207" />
        <path
           d="M 114.84822,150.90668 C 114.77009,150.93793 114.20759,151.07855 114.02009,151.12543 C 113.87947,151.14105 113.70759,151.14105 113.45759,151.14105 C 113.03572,151.14105 112.91072,151.12543 112.33259,150.9848 C 111.92634,150.87543 111.87947,150.87543 111.78572,151.01605 C 111.73884,151.07855 111.73884,151.09418 111.72322,151.3598 C 111.66072,152.45355 111.53572,153.03168 111.27009,153.89105 C 110.84822,155.14105 110.12947,156.39105 109.12947,157.59418 C 108.97322,157.7973 108.92634,157.84418 108.92634,157.89105 C 108.92634,158.09418 109.06697,158.26605 109.28572,158.32855 C 109.41072,158.37543 109.45759,158.37543 111.14509,158.37543 L 112.87947,158.37543 L 112.87947,158.46918 C 112.87947,158.95355 112.73884,159.4223 112.52009,159.76605 C 112.25447,160.14105 111.92634,160.3598 111.50447,160.40668 C 111.30134,160.40668 111.28572,160.4223 111.22322,160.50043 C 111.14509,160.62543 111.19197,160.78168 111.30134,160.81293 C 111.42634,160.87543 111.80134,160.8598 112.73884,160.71918 C 113.95759,160.56293 114.11384,160.56293 115.34822,160.71918 C 116.27009,160.8598 116.64509,160.87543 116.77009,160.81293 C 116.87947,160.78168 116.92634,160.62543 116.84822,160.50043 C 116.78572,160.4223 116.77009,160.40668 116.56697,160.40668 C 115.94197,160.34418 115.47322,159.8598 115.27009,159.1098 C 115.22322,158.9223 115.19197,158.62543 115.20759,158.4848 L 115.20759,158.37543 L 115.97322,158.37543 C 116.64509,158.37543 116.72322,158.37543 116.78572,158.32855 C 116.87947,158.2973 116.94197,158.20355 116.94197,158.09418 C 116.94197,157.95355 116.87947,157.87543 116.78572,157.82855 C 116.72322,157.7973 116.64509,157.7973 115.97322,157.7973 L 115.20759,157.7973 L 115.20759,155.32855 C 115.20759,152.59418 115.20759,152.75043 115.08259,152.6723 C 115.00447,152.6098 114.86384,152.62543 114.81697,152.68793 C 114.78572,152.71918 114.70759,152.84418 114.64509,152.9848 C 114.28572,153.78168 114.06697,154.0473 113.27009,154.57855 C 113.03572,154.75043 112.95759,154.7973 112.94197,154.8598 C 112.89509,154.93793 112.87947,154.9848 112.87947,156.37543 L 112.87947,157.7973 L 111.22322,157.7973 L 109.56697,157.7973 C 109.56697,157.76605 110.84822,156.2973 112.42634,154.46918 C 114.64509,151.87543 115.25447,151.15668 115.25447,151.12543 C 115.25447,150.95355 115.03572,150.84418 114.84822,150.90668 z "
           style="opacity:1;fill:#000000;stroke:none"
           id="path2724" />
        <path
           d="M 112.21611,140.88728 C 111.20049,140.99666 110.37236,141.52791 110.04424,142.21541 C 109.93486,142.46541 109.91924,142.62166 109.91924,142.90291 C 109.91924,143.09041 109.91924,143.16853 109.93486,143.26228 C 110.07549,143.63728 110.32549,143.88728 110.71611,144.02791 C 110.88799,144.09041 111.23174,144.07478 111.40361,144.01228 C 111.88799,143.82478 112.16924,143.43416 112.16924,142.98103 C 112.16924,142.80916 112.16924,142.79353 112.12236,142.71541 C 112.05986,142.63728 112.02861,142.59041 111.73174,142.37166 C 111.63799,142.34041 111.55986,142.26228 111.54424,142.19978 C 111.48174,142.12166 111.48174,142.10603 111.48174,141.98103 C 111.48174,141.84041 111.48174,141.82478 111.54424,141.71541 C 111.68486,141.48103 112.10674,141.32478 112.62236,141.32478 C 113.41924,141.32478 113.84111,141.76228 113.93486,142.71541 C 113.98174,143.05916 113.95049,144.09041 113.91924,144.32478 C 113.84111,144.71541 113.77861,144.87166 113.62236,145.04353 C 113.49736,145.15291 113.35674,145.19978 113.13799,145.24666 C 113.07549,145.26228 112.62236,145.26228 112.16924,145.26228 C 111.20049,145.26228 111.20049,145.26228 111.15361,145.40291 C 111.09111,145.48103 111.10674,145.65291 111.16924,145.73103 C 111.24736,145.84041 111.24736,145.84041 112.21611,145.84041 C 112.93486,145.84041 113.13799,145.84041 113.23174,145.88728 C 113.68486,145.98103 113.87236,146.30916 113.93486,146.99666 C 113.95049,147.32478 113.95049,148.23103 113.93486,148.52791 C 113.84111,149.59041 113.51299,150.18416 112.96611,150.34041 C 112.63799,150.43416 112.04424,150.32478 111.76299,150.15291 C 111.45049,149.94978 111.37236,149.59041 111.59111,149.32478 C 111.62236,149.30916 111.74736,149.18416 111.88799,149.10603 C 112.20049,148.85603 112.27861,148.74666 112.26299,148.48103 C 112.21611,147.94978 111.87236,147.49666 111.37236,147.32478 C 111.23174,147.27791 111.16924,147.27791 110.96611,147.27791 C 110.74736,147.27791 110.68486,147.27791 110.54424,147.32478 C 110.16924,147.46541 109.85674,147.77791 109.71611,148.15291 C 109.66924,148.30916 109.66924,148.35603 109.66924,148.59041 C 109.66924,148.85603 109.66924,148.91853 109.71611,149.05916 C 109.82549,149.40291 109.96611,149.65291 110.23174,149.93416 C 110.84111,150.52791 111.80986,150.84041 112.90361,150.82478 C 114.02861,150.77791 114.95049,150.44978 115.57549,149.85603 C 116.02861,149.37166 116.24736,148.85603 116.29424,148.15291 C 116.30986,147.65291 116.23174,147.21541 116.04424,146.84041 C 115.87236,146.48103 115.60674,146.24666 115.27861,146.04353 C 115.16924,145.99666 115.07549,145.94978 115.02861,145.90291 C 114.88799,145.77791 114.82549,145.55916 114.91924,145.38728 C 114.96611,145.24666 115.02861,145.18416 115.23174,145.07478 C 115.52861,144.90291 115.76299,144.60603 115.87236,144.23103 C 115.95049,143.94978 115.96611,143.73103 115.96611,143.26228 C 115.96611,142.76228 115.95049,142.62166 115.82549,142.32478 C 115.51299,141.55916 114.66924,141.05916 113.46611,140.90291 C 113.15361,140.88728 112.43486,140.87166 112.21611,140.88728 z "
           style="opacity:1;fill:#000000;stroke:none"
           id="path2718" />
        <path
           d="M 96.066925,133.42468 C 95.973175,133.47155 95.910675,133.53405 95.8638,133.6278 C 95.83255,133.6903 95.83255,133.90905 95.83255,135.28405 L 95.83255,136.83093 L 95.035675,137.1903 L 94.2388,137.53405 L 94.223175,136.03405 C 94.223175,134.6903 94.191925,134.53405 94.1763,134.47155 C 94.02005,134.1903 93.598175,134.20593 93.473175,134.5028 C 93.441925,134.5653 93.441925,134.78405 93.441925,136.22155 L 93.441925,137.8778 L 92.941925,138.08093 C 92.629425,138.20593 92.4263,138.3153 92.410675,138.34655 C 92.285675,138.47155 92.285675,138.48718 92.285675,139.2528 C 92.285675,139.86218 92.285675,139.9403 92.33255,140.01843 C 92.379425,140.15905 92.5513,140.26843 92.70755,140.23718 C 92.77005,140.23718 92.941925,140.15905 93.098175,140.11218 L 93.4263,139.97155 C 93.441925,139.97155 93.441925,140.65905 93.441925,141.53405 L 93.441925,143.11218 L 92.941925,143.3153 C 92.629425,143.45593 92.4263,143.54968 92.410675,143.59655 C 92.285675,143.70593 92.285675,143.73718 92.285675,144.48718 C 92.285675,145.11218 92.285675,145.1903 92.33255,145.26843 C 92.379425,145.40905 92.5513,145.5028 92.70755,145.48718 C 92.77005,145.48718 92.941925,145.40905 93.098175,145.34655 L 93.4263,145.20593 C 93.441925,145.20593 93.441925,145.84655 93.441925,146.61218 C 93.441925,147.83093 93.441925,148.03405 93.473175,148.09655 C 93.598175,148.40905 94.0513,148.40905 94.1763,148.09655 C 94.223175,148.03405 94.223175,147.8153 94.223175,146.4403 L 94.223175,144.84655 L 95.02005,144.5028 L 95.83255,144.17468 L 95.83255,145.6903 C 95.83255,147.03405 95.848175,147.1903 95.8638,147.23718 C 96.035675,147.53405 96.4263,147.51843 96.566925,147.22155 C 96.6138,147.15905 96.6138,147.0653 96.6138,145.48718 L 96.6138,143.83093 L 97.1138,143.6278 C 97.4263,143.48718 97.629425,143.39343 97.64505,143.34655 C 97.77005,143.23718 97.77005,143.20593 97.77005,142.45593 C 97.77005,141.83093 97.77005,141.7528 97.723175,141.67468 C 97.660675,141.53405 97.504425,141.4403 97.348175,141.45593 C 97.285675,141.45593 97.1138,141.53405 96.941925,141.59655 L 96.629425,141.73718 C 96.6138,141.73718 96.6138,141.03405 96.6138,140.15905 L 96.6138,138.59655 L 97.1138,138.39343 C 97.4263,138.2528 97.629425,138.15905 97.64505,138.11218 C 97.77005,137.98718 97.77005,137.97155 97.77005,137.22155 C 97.77005,136.59655 97.77005,136.51843 97.723175,136.4403 C 97.660675,136.29968 97.504425,136.20593 97.348175,136.22155 C 97.285675,136.22155 97.1138,136.29968 96.941925,136.36218 L 96.629425,136.5028 C 96.6138,136.5028 96.6138,135.86218 96.6138,135.11218 C 96.6138,133.78405 96.6138,133.6903 96.566925,133.61218 C 96.4888,133.42468 96.254425,133.33093 96.066925,133.42468 z M 95.83255,140.5028 L 95.83255,142.08093 L 95.0513,142.40905 C 94.629425,142.59655 94.27005,142.7528 94.254425,142.7528 C 94.223175,142.76843 94.223175,142.73718 94.223175,141.20593 L 94.223175,139.61218 L 95.02005,139.26843 L 95.83255,138.92468 L 95.83255,140.5028 z "
           style="opacity:1;fill:#000000;stroke:none"
           id="path2736" />
        <path
           d="M 101.54639,140.89682 C 101.45264,140.94369 101.39014,141.00619 101.34326,141.09994 C 101.31201,141.16244 101.31201,141.38119 101.31201,142.75619 L 101.31201,144.30307 L 100.51514,144.66244 L 99.718262,145.00619 L 99.702637,143.50619 C 99.702637,142.16244 99.671387,142.00619 99.655762,141.94369 C 99.499512,141.66244 99.077637,141.67807 98.952637,141.97494 C 98.921387,142.03744 98.921387,142.25619 98.921387,143.69369 L 98.921387,145.34994 L 98.421387,145.55307 C 98.108887,145.67807 97.905762,145.78744 97.890137,145.81869 C 97.765137,145.94369 97.765137,145.95932 97.765137,146.72494 C 97.765137,147.33432 97.765137,147.41244 97.812012,147.49057 C 97.858887,147.63119 98.030762,147.74057 98.187012,147.70932 C 98.249512,147.70932 98.421387,147.63119 98.577637,147.58432 L 98.905762,147.44369 C 98.921387,147.44369 98.921387,148.13119 98.921387,149.00619 L 98.921387,150.58432 L 98.421387,150.78744 C 98.108887,150.92807 97.905762,151.02182 97.890137,151.06869 C 97.765137,151.17807 97.765137,151.20932 97.765137,151.95932 C 97.765137,152.58432 97.765137,152.66244 97.812012,152.74057 C 97.858887,152.88119 98.030762,152.97494 98.187012,152.95932 C 98.249512,152.95932 98.421387,152.88119 98.577637,152.81869 L 98.905762,152.67807 C 98.921387,152.67807 98.921387,153.31869 98.921387,154.08432 C 98.921387,155.30307 98.921387,155.50619 98.952637,155.56869 C 99.077637,155.88119 99.530762,155.88119 99.655762,155.56869 C 99.702637,155.50619 99.702637,155.28744 99.702637,153.91244 L 99.702637,152.31869 L 100.49951,151.97494 L 101.31201,151.64682 L 101.31201,153.16244 C 101.31201,154.50619 101.32764,154.66244 101.34326,154.70932 C 101.51514,155.00619 101.90576,154.99057 102.04639,154.69369 C 102.09326,154.63119 102.09326,154.53744 102.09326,152.95932 L 102.09326,151.30307 L 102.59326,151.09994 C 102.90576,150.95932 103.10889,150.86557 103.12451,150.81869 C 103.24951,150.70932 103.24951,150.67807 103.24951,149.92807 C 103.24951,149.30307 103.24951,149.22494 103.20264,149.14682 C 103.14014,149.00619 102.98389,148.91244 102.82764,148.92807 C 102.76514,148.92807 102.59326,149.00619 102.42139,149.06869 L 102.10889,149.20932 C 102.09326,149.20932 102.09326,148.50619 102.09326,147.63119 L 102.09326,146.06869 L 102.59326,145.86557 C 102.90576,145.72494 103.10889,145.63119 103.12451,145.58432 C 103.24951,145.45932 103.24951,145.44369 103.24951,144.69369 C 103.24951,144.06869 103.24951,143.99057 103.20264,143.91244 C 103.14014,143.77182 102.98389,143.67807 102.82764,143.69369 C 102.76514,143.69369 102.59326,143.77182 102.42139,143.83432 L 102.10889,143.97494 C 102.09326,143.97494 102.09326,143.33432 102.09326,142.58432 C 102.09326,141.25619 102.09326,141.16244 102.04639,141.08432 C 101.96826,140.89682 101.73389,140.80307 101.54639,140.89682 z M 101.31201,147.97494 L 101.31201,149.55307 L 100.53076,149.88119 C 100.10889,150.06869 99.749512,150.22494 99.733887,150.22494 C 99.702637,150.24057 99.702637,150.20932 99.702637,148.67807 L 99.702637,147.08432 L 100.49951,146.74057 L 101.31201,146.39682 L 101.31201,147.97494 z "
           style="opacity:1;fill:#000000;stroke:none"
           id="path2730" />
        <path
           d="M 81.148064,130.96245 C 81.101189,130.97807 80.960564,131.1187 80.819939,131.25932 C 79.398064,132.6812 78.523064,134.46245 78.304314,136.46245 C 78.257439,136.8062 78.257439,137.6187 78.273064,138.14995 C 78.351189,140.16557 78.679314,141.6812 79.491814,144.25932 L 79.585564,144.60307 L 79.007439,145.35307 C 77.148064,147.71245 76.429314,148.77495 75.804314,150.0562 C 75.194939,151.32182 74.898064,152.47807 74.851189,153.75932 C 74.788689,156.08745 75.819939,158.27495 77.679314,159.64995 C 79.194939,160.79057 81.023064,161.2437 82.991814,160.96245 C 83.163689,160.94682 83.304314,160.9312 83.304314,160.94682 L 83.304314,161.91557 C 83.304314,164.14995 83.163689,165.08745 82.679314,166.07182 C 82.382439,166.6812 82.023064,167.13432 81.585564,167.46245 C 81.085564,167.83745 80.585564,167.9937 79.976189,167.9937 C 79.273064,167.9937 78.663689,167.8062 78.101189,167.38432 C 77.913689,167.25932 77.616814,166.96245 77.507439,166.79057 L 77.398064,166.66557 L 77.476189,166.69682 C 78.163689,166.94682 79.038689,166.64995 79.491814,166.02495 C 79.866814,165.52495 79.976189,164.91557 79.773064,164.25932 C 79.538689,163.41557 78.882439,162.85307 78.054314,162.82182 C 77.288689,162.8062 76.491814,163.1812 76.069939,163.83745 C 75.741814,164.33745 75.663689,164.9312 75.851189,165.71245 C 76.069939,166.7437 76.741814,167.66557 77.694939,168.21245 C 78.319939,168.60307 79.054314,168.82182 79.788689,168.85307 C 81.101189,168.89995 82.257439,168.27495 83.101189,167.04057 C 83.663689,166.21245 83.976189,165.2437 84.054314,164.07182 C 84.132439,163.29057 84.132439,162.96245 84.148064,161.83745 L 84.148064,160.71245 L 84.351189,160.63432 C 85.163689,160.3062 85.866814,159.79057 86.460564,159.0562 C 87.476189,157.79057 87.819939,156.14995 87.398064,154.52495 C 87.023064,153.04057 86.023064,151.75932 84.694939,151.10307 C 84.054314,150.79057 83.444939,150.63432 82.694939,150.58745 L 82.366814,150.57182 L 82.288689,150.22807 C 82.038689,149.3687 81.585564,147.89995 81.132439,146.47807 L 81.023064,146.19682 L 81.366814,145.7437 C 82.773064,143.9312 83.554314,142.60307 84.054314,141.25932 C 84.507439,140.00932 84.679314,138.69682 84.507439,137.4937 C 84.241814,135.32182 83.023064,132.63432 81.663689,131.1812 C 81.429314,130.9312 81.304314,130.8687 81.148064,130.96245 z M 82.382439,133.85307 C 82.413689,133.91557 82.741814,134.5562 82.835564,134.77495 C 82.944939,135.04057 83.038689,135.44682 83.101189,135.75932 C 83.132439,136.10307 83.132439,137.21245 83.101189,137.5562 C 82.882439,139.4312 82.179314,141.07182 80.663689,143.1812 C 80.523064,143.3687 80.382439,143.57182 80.335564,143.64995 L 80.226189,143.77495 L 80.163689,143.5562 C 79.804314,142.4312 79.460564,141.02495 79.335564,140.21245 C 79.273064,139.8062 79.273064,139.0562 79.319939,138.64995 C 79.491814,137.33745 79.944939,136.2437 80.773064,135.22807 C 80.960564,134.96245 81.444939,134.4937 81.710564,134.29057 C 81.898064,134.13432 82.319939,133.83745 82.335564,133.83745 C 82.335564,133.83745 82.366814,133.85307 82.382439,133.85307 z M 80.601189,147.66557 C 81.069939,149.07182 81.507439,150.60307 81.491814,150.63432 C 81.491814,150.63432 81.382439,150.66557 81.304314,150.66557 C 81.054314,150.72807 80.601189,150.8687 80.366814,150.97807 C 79.929314,151.19682 79.585564,151.4312 79.257439,151.75932 C 78.210564,152.82182 77.835564,154.38432 78.304314,155.8062 C 78.476189,156.39995 78.819939,156.94682 79.273064,157.39995 C 79.632439,157.75932 79.991814,158.02495 80.491814,158.25932 C 80.726189,158.3687 80.773064,158.3687 80.882439,158.3687 C 81.007439,158.3687 81.023064,158.3687 81.101189,158.32182 C 81.226189,158.2437 81.304314,158.07182 81.304314,157.9312 C 81.288689,157.75932 81.226189,157.69682 80.960564,157.54057 C 79.726189,156.83745 79.132439,155.6812 79.476189,154.52495 C 79.710564,153.6812 80.444939,153.04057 81.460564,152.82182 C 81.663689,152.75932 82.038689,152.71245 82.069939,152.7437 C 82.069939,152.7437 82.148064,153.02495 82.257439,153.57182 C 82.648064,155.13432 82.898064,156.58745 83.054314,157.97807 C 83.179314,158.85307 83.273064,160.02495 83.241814,160.07182 C 83.210564,160.08745 82.819939,160.14995 82.444939,160.16557 C 81.210564,160.2437 80.148064,160.0562 79.101189,159.50932 C 78.491814,159.21245 78.023064,158.85307 77.554314,158.41557 C 76.819939,157.66557 76.398064,156.82182 76.304314,155.88432 C 76.273064,155.63432 76.288689,155.02495 76.319939,154.64995 C 76.538689,152.88432 77.257439,151.22807 78.757439,149.14995 C 79.179314,148.5562 80.351189,147.02495 80.382439,147.02495 L 80.601189,147.66557 z M 83.304314,152.83745 C 84.835564,153.1812 85.960564,154.41557 86.241814,156.00932 C 86.273064,156.14995 86.273064,156.3062 86.273064,156.60307 C 86.273064,156.96245 86.273064,157.04057 86.226189,157.25932 C 86.179314,157.41557 86.148064,157.6187 86.101189,157.69682 C 85.866814,158.39995 85.351189,159.08745 84.757439,159.4937 C 84.538689,159.64995 84.116814,159.85307 84.101189,159.83745 C 84.101189,159.8062 84.069939,159.69682 84.069939,159.57182 C 84.007439,158.79057 83.835564,157.3062 83.663689,156.2437 C 83.491814,155.2437 83.163689,153.5562 82.976189,152.85307 L 82.944939,152.75932 L 82.991814,152.77495 C 83.038689,152.77495 83.163689,152.79057 83.304314,152.83745 z "
           style="opacity:1;fill:#000000;stroke:none"
           id="path2742" />
      </g>
    </g>
    <g
       style="opacity:1;fill:#000000"
       id="g273">
      <use
         id="use275"
         x="222.29372"
         y="809.76062"
         width="595.28003"
         height="841.89001"
         xlink:href="#glyph0-0" />
    </g>
    <g
       style="opacity:1;fill:#000000"
       id="g297">
      <use
         id="use299"
         x="253.07831"
         y="809.76062"
         width="595.28003"
         height="841.89001"
         xlink:href="#glyph0-0" />
    </g>
    <g
       style="opacity:1;fill:#000000"
       id="g341">
      <use
         id="use343"
         x="315.66843"
         y="809.76062"
         width="595.28003"
         height="841.89001"
         xlink:href="#glyph0-0" />
    </g>
    <g
       style="opacity:1;fill:#000000"
       id="g365">
      <use
         id="use367"
         x="343.22238"
         y="809.76062"
         width="595.28003"
         height="841.89001"
         xlink:href="#glyph0-0" />
    </g>
    <g
       style="opacity:1;fill:#000000"
       id="g381">
      <use
         id="use383"
         x="365.33298"
         y="809.76062"
         width="595.28003"
         height="841.89001"
         xlink:href="#glyph0-0" />
    </g>
  </g>
</svg>
