<?xml version="1.0" encoding="UTF-8" standalone="no"?>
<!-- Created with Inkscape (http://www.inkscape.org/) -->
<svg
   xmlns:svg="http://www.w3.org/2000/svg"
   xmlns="http://www.w3.org/2000/svg"
   version="1.0"
   width="530.09003"
   height="83.129997"
   id="svg1437">
  <defs
     id="defs1440" />
  <g
     transform="translate(-3.439383e-5,101.8982)"
     id="g2209">
    <path
       d="M 120.31249,-95.884611 L 120.31249,-96.139511 C 121.73045,-96.356311 122.78807,-96.778211 123.48534,-97.405111 C 123.98924,-97.850411 124.24119,-98.380711 124.2412,-98.996011 C 124.24119,-99.458809 124.09471,-99.839709 123.80174,-100.13851 C 123.50877,-100.44321 123.27928,-100.75181 122.80077,-100.90811 C 122.17693,-101.11181 121.05707,-101.24901 120.5473,-100.43461 C 120.76579,-100.15411 120.93314,-99.980909 120.88942,-99.460709 C 120.84556,-98.938811 120.1108,-98.727111 119.90772,-98.717511 C 119.73581,-98.709411 119.05278,-99.037911 119.03855,-99.602109 C 119.02849,-100.00111 119.23828,-100.48641 119.56234,-100.56341 C 120.02722,-101.10821 120.08145,-101.16691 120.59555,-101.45061 C 121.47122,-101.93381 122.04237,-101.88951 122.61074,-101.88961 C 123.30214,-101.88961 124.65721,-101.32801 125.08495,-100.91201 C 125.51267,-100.50181 125.72654,-99.980309 125.72655,-99.347511 C 125.72654,-98.808511 125.52439,-98.289911 125.1201,-97.791911 C 124.72166,-97.293811 124.03318,-96.848511 123.05467,-96.455911 C 123.66404,-96.204011 124.124,-95.840711 124.43456,-95.366111 C 124.7451,-94.897311 124.90037,-94.331911 124.90038,-93.669811 C 124.90037,-92.937411 124.68943,-92.202011 124.26756,-91.463712 C 123.84568,-90.731312 123.26561,-90.163012 122.52733,-89.758662 C 121.7949,-89.360162 120.93065,-89.473462 120.12206,-89.473462 C 119.38377,-89.473462 118.26087,-89.905012 117.65917,-90.475512 C 117.05747,-91.045912 116.71683,-91.694512 116.78514,-92.252811 C 116.8989,-93.182711 117.49706,-93.347511 117.96385,-93.378811 C 118.42766,-93.409811 118.87966,-93.280011 118.92089,-92.652211 C 118.95359,-92.154311 118.8994,-91.880712 118.23143,-91.300712 C 118.60057,-90.626812 119.34579,-90.003012 120.31151,-89.981312 C 120.95714,-89.966812 122.53026,-90.283112 122.8701,-90.892512 C 123.2158,-91.507712 123.38865,-92.161011 123.38866,-92.852411 C 123.38865,-93.414911 123.27147,-93.915911 123.0371,-94.355311 C 122.80858,-94.794811 122.44529,-95.149311 121.94725,-95.418811 C 121.4492,-95.694211 120.90428,-95.849511 120.31249,-95.884611"
       style="font-size:18px;font-style:italic;font-variant:normal;font-weight:normal;font-stretch:normal;text-align:start;line-height:125%;writing-mode:lr-tb;text-anchor:start;fill:#000000;fill-opacity:1;stroke:none;stroke-width:0.5;stroke-linecap:butt;stroke-linejoin:miter;stroke-miterlimit:4;stroke-opacity:1;font-family:Times New Roman"
       id="path2464" />
    <g
       transform="translate(61.38358,-1089.412)"
       id="g2466">
      <path
         d="M 55.754151,1050.7599 C 59.149991,1048.9399 60.959431,1045.6453 59.846371,1043.1669 C 58.659111,1040.5233 54.579361,1039.7772 50.739791,1041.5015 C 46.900231,1043.2259 44.747631,1046.7709 45.934891,1049.4146 C 47.122161,1052.0582 51.201901,1052.8043 55.041471,1051.0799 C 55.281441,1050.9722 55.527751,1050.8812 55.754151,1050.7599 z "
         style="opacity:0.9;fill:#000000;fill-opacity:1;fill-rule:evenodd;stroke:none;stroke-width:0.2;stroke-miterlimit:4;stroke-dashoffset:0;stroke-opacity:1"
         id="path2468" />
      <path
         d="M 59.386651,1044.4265 L 59.386651,1010.8389"
         style="fill:none;fill-opacity:0.75;fill-rule:evenodd;stroke:#000000;stroke-width:1.5;stroke-linecap:butt;stroke-linejoin:miter;stroke-miterlimit:4;stroke-dasharray:none;stroke-opacity:1"
         id="path2470" />
    </g>
    <g
       transform="translate(80.0871,-1089.766)"
       id="g2472">
      <path
         d="M 10.145751,1051.1135 C 13.541591,1049.2935 15.351031,1045.9989 14.237971,1043.5205 C 13.050711,1040.8769 8.9709609,1040.1308 5.1313909,1041.8551 C 1.2918309,1043.5795 -0.86076913,1047.1245 0.32649087,1049.7682 C 1.5137609,1052.4118 5.5935009,1053.1579 9.4330709,1051.4335 C 9.6730409,1051.3258 9.9193509,1051.2348 10.145751,1051.1135 z "
         style="opacity:0.9;fill:#000000;fill-opacity:1;fill-rule:evenodd;stroke:none;stroke-width:0.2;stroke-miterlimit:4;stroke-dashoffset:0;stroke-opacity:1"
         id="path2474" />
      <path
         d="M 13.778251,1044.7801 L 13.778251,1011.1925"
         style="fill:none;fill-opacity:0.75;fill-rule:evenodd;stroke:#000000;stroke-width:1.5;stroke-linecap:butt;stroke-linejoin:miter;stroke-miterlimit:4;stroke-dasharray:none;stroke-opacity:1"
         id="path2476" />
    </g>
    <rect
       width="55.419266"
       height="4.4712305"
       x="-148.50671"
       y="75.562943"
       transform="scale(-1,-1)"
       style="opacity:0.9;fill:#000000;fill-opacity:1;fill-rule:evenodd;stroke:none;stroke-width:0.5;stroke-miterlimit:4;stroke-dasharray:none;stroke-dashoffset:0;stroke-opacity:1"
       id="rect2478" />
    <g
       transform="translate(88.396,-1089.412)"
       id="g2480">
      <path
         d="M 55.754151,1050.7599 C 59.149991,1048.9399 60.959431,1045.6453 59.846371,1043.1669 C 58.659111,1040.5233 54.579361,1039.7772 50.739791,1041.5015 C 46.900231,1043.2259 44.747631,1046.7709 45.934891,1049.4146 C 47.122161,1052.0582 51.201901,1052.8043 55.041471,1051.0799 C 55.281441,1050.9722 55.527751,1050.8812 55.754151,1050.7599 z "
         style="opacity:0.9;fill:#000000;fill-opacity:1;fill-rule:evenodd;stroke:none;stroke-width:0.2;stroke-miterlimit:4;stroke-dashoffset:0;stroke-opacity:1"
         id="path2482" />
      <path
         d="M 59.386651,1044.4265 L 59.386651,1010.8389"
         style="fill:none;fill-opacity:0.75;fill-rule:evenodd;stroke:#000000;stroke-width:1.5;stroke-linecap:butt;stroke-linejoin:miter;stroke-miterlimit:4;stroke-dasharray:none;stroke-opacity:1"
         id="path2484" />
    </g>
    <g
       transform="matrix(1.275996,0,0,1,114.504,0)"
       id="g1613">
      <path
         d="M -89.36166,-81.968079 L 105.71594,-81.968079"
         style="fill:none;fill-rule:evenodd;stroke:#131516;stroke-width:0.84781325"
         id="path9" />
      <path
         d="M -89.36166,-48.462889 L 105.71594,-48.462889"
         style="fill:none;fill-rule:evenodd;stroke:#131516;stroke-width:0.84781325"
         id="path1491" />
      <path
         d="M -89.36166,-59.644789 L 105.71594,-59.644789"
         style="fill:none;fill-rule:evenodd;stroke:#131516;stroke-width:0.84781325"
         id="path1493" />
      <path
         d="M -89.36166,-70.806439 L 105.71594,-70.806439"
         style="fill:none;fill-rule:evenodd;stroke:#131516;stroke-width:0.84781325"
         id="path1495" />
      <path
         d="M -89.36166,-37.301239 L 105.71594,-37.301239"
         style="fill:none;fill-rule:evenodd;stroke:#131516;stroke-width:0.84781325"
         id="path1497" />
    </g>
    <g
       transform="translate(-491.5705,-200.1662)"
       id="g1721">
      <path
         d="M 543.09082,135.69344 L 549.84375,135.69344 C 550.4785,135.69344 550.96678,135.48348 551.30859,135.06355 C 551.66014,134.64364 551.95799,133.73543 552.20215,132.33894 L 553.65234,132.33894 L 553.21289,139.38484 L 539.91211,139.38484 L 539.91211,138.12508 C 540.625,136.9825 542.03613,135.23446 544.14551,132.88094 C 546.01073,130.7911 547.21679,129.2286 547.76367,128.19344 C 548.51561,126.7872 548.89159,125.3663 548.8916,123.93074 C 548.89159,122.69052 548.61327,121.74814 548.05664,121.10359 C 547.50976,120.45908 546.7578,120.13681 545.80078,120.1368 C 544.83398,120.13681 544.02831,120.40049 543.38379,120.92781 C 542.73925,121.44541 542.41699,121.98252 542.41699,122.53914 C 542.41699,122.76376 542.49023,122.93955 542.63672,123.06648 C 542.7832,123.20322 543.12988,123.33994 543.67676,123.47664 C 544.85839,123.78915 545.44921,124.44345 545.44922,125.43953 C 545.44921,126.11337 545.21972,126.67001 544.76074,127.10945 C 544.31152,127.53915 543.74511,127.75399 543.06152,127.75398 C 542.34863,127.75399 541.75781,127.45614 541.28906,126.86043 C 540.82031,126.25497 540.58594,125.40536 540.58594,124.3116 C 540.58594,122.78818 541.08398,121.51377 542.08008,120.48836 C 543.30078,119.22861 544.96093,118.59873 547.06055,118.59871 C 548.93554,118.59873 550.44921,119.12119 551.60156,120.16609 C 552.75389,121.21103 553.33006,122.50009 553.33008,124.03328 C 553.33006,124.85361 553.18846,125.60556 552.90527,126.28914 C 552.5244,127.21689 552.01659,128.04208 551.38184,128.76472 C 550.74706,129.48739 549.67284,130.40048 548.15918,131.50398 C 546.51855,132.68563 545.39062,133.53524 544.77539,134.05281 C 544.16992,134.57039 543.60839,135.11727 543.09082,135.69344"
         style="font-size:30px;font-style:normal;font-variant:normal;font-weight:bold;font-stretch:normal;text-align:start;line-height:125%;writing-mode:lr-tb;text-anchor:start;fill:#000000;fill-opacity:1;stroke:none;stroke-width:1px;stroke-linecap:butt;stroke-linejoin:miter;stroke-opacity:1;font-family:Century Schoolbook"
         id="text1663" />
      <path
         d="M 549.47754,140.12967 L 550.83984,140.12967 L 550.83984,154.28006 L 553.76953,154.28006 L 553.76953,155.89139 L 550.83984,155.89139 L 550.83984,158.38162 C 550.83983,158.78202 550.95214,159.08475 551.17676,159.28983 C 551.41112,159.48514 551.77245,159.5828 552.26074,159.58279 L 553.03711,159.58279 L 553.03711,160.9451 L 543.91113,160.9451 L 543.91113,159.58279 L 545.40527,159.58279 C 545.9912,159.5828 546.38671,159.47049 546.5918,159.24588 C 546.86523,158.96268 547.00194,158.52811 547.00195,157.94217 L 547.00195,155.89139 L 539.47266,155.89139 L 539.47266,153.91385 L 549.47754,140.12967 M 547.00195,145.90115 L 540.9375,154.28006 L 547.00195,154.28006 L 547.00195,145.90115"
         style="font-size:30px;font-style:normal;font-variant:normal;font-weight:bold;font-stretch:normal;text-align:start;line-height:125%;writing-mode:lr-tb;text-anchor:start;fill:#000000;fill-opacity:1;stroke:none;stroke-width:1px;stroke-linecap:butt;stroke-linejoin:miter;stroke-opacity:1;font-family:Century Schoolbook"
         id="text1667" />
    </g>
    <path
       d="M 23.658869,-53.328308 C 22.501725,-53.006608 21.458399,-52.287513 20.490951,-51.189947 C 19.523503,-50.073457 19.049264,-48.843427 19.049264,-47.518778 C 19.049264,-46.686142 19.333807,-45.739964 19.883925,-44.737016 C 20.434042,-43.715145 21.268703,-42.977126 22.349969,-42.504037 C 22.710391,-42.428343 22.881117,-42.239108 22.881117,-41.974178 C 22.881117,-41.87956 22.74833,-41.784942 22.425847,-41.709248 C 20.699616,-42.14449 19.276898,-43.071744 18.176663,-44.453163 C 17.076428,-45.853506 16.507341,-47.443084 16.469402,-49.259745 C 16.526311,-51.20887 17.114367,-53.025531 18.233572,-54.690804 C 19.371746,-56.374999 20.832403,-57.567183 22.615543,-58.267355 L 21.306642,-64.985215 C 18.385329,-62.563 16.014132,-60.046168 14.174084,-57.396871 C 12.334036,-54.766498 11.385557,-51.909042 11.309679,-48.824503 C 11.347618,-47.443084 11.632162,-46.099512 12.16331,-44.81271 C 12.694458,-43.506985 13.49118,-42.333725 14.553476,-41.255083 C 16.697037,-39.116722 19.485564,-38.000232 22.881117,-37.886691 C 24.038261,-37.962385 25.271283,-38.170544 26.599152,-38.511168 L 23.658869,-53.328308 z M 25.024678,-53.517543 L 27.983931,-38.965333 C 30.90524,-40.138594 32.3659,-42.693273 32.3659,-46.591524 C 32.19518,-47.897249 31.81578,-49.070509 31.17082,-50.111304 C 30.54482,-51.171023 29.71016,-52.003659 28.64787,-52.609213 C 27.58557,-53.214767 26.390487,-53.517543 25.024678,-53.517543 z M 21.135916,-73.198035 C 21.761912,-73.576506 22.482756,-74.238831 23.260508,-75.166085 C 24.038261,-76.074415 24.797043,-77.153057 25.517887,-78.364165 C 26.2577,-79.594195 26.845757,-80.84315 27.282057,-82.111027 C 27.718357,-83.359982 27.927022,-84.552165 27.927022,-85.649731 C 27.927022,-86.12282 27.889083,-86.595909 27.794235,-87.012227 C 27.718357,-87.693475 27.509692,-88.223334 27.14927,-88.582882 C 26.788848,-88.923505 26.333579,-89.112741 25.764491,-89.112741 C 24.626317,-89.112741 23.60196,-88.41257 22.691421,-87.012227 C 21.989547,-85.80112 21.40149,-84.36293 20.98416,-82.735505 C 20.54786,-81.089156 20.301255,-79.461731 20.263316,-77.815382 C 20.358164,-75.94195 20.661677,-74.409143 21.135916,-73.198035 z M 19.940833,-72.10047 C 19.087203,-75.166085 18.612964,-78.28847 18.518116,-81.467627 C 18.537085,-83.51137 18.745751,-85.422649 19.144111,-87.201462 C 19.523503,-88.980276 20.07362,-90.513084 20.794464,-91.837732 C 21.496338,-93.162381 22.31203,-94.165329 23.222569,-94.846577 C 24.038261,-95.45213 24.626317,-95.773831 24.9488,-95.773831 C 25.195404,-95.773831 25.40407,-95.679213 25.593765,-95.508901 C 25.783461,-95.338589 26.030065,-95.054736 26.333579,-94.676265 C 28.59096,-91.478185 29.72913,-87.617781 29.72913,-83.113976 C 29.72913,-80.975614 29.44459,-78.894024 28.8755,-76.812433 C 28.32538,-74.749767 27.509692,-72.781717 26.428426,-70.946133 C 25.328191,-69.091625 24.038261,-67.483123 22.539665,-66.101704 L 24.0762,-58.645825 C 24.910861,-58.740443 25.479948,-58.816137 25.802431,-58.816137 C 27.244118,-58.816137 28.53405,-58.513361 29.72913,-57.907807 C 30.92421,-57.302253 31.94857,-56.488541 32.78323,-55.447746 C 33.61789,-54.425874 34.26286,-53.252614 34.71813,-51.927965 C 35.15443,-50.603317 35.40103,-49.221898 35.40103,-47.783708 C 35.40103,-45.550729 34.81298,-43.506985 33.63686,-41.671401 C 32.46075,-39.835817 30.69658,-38.492245 28.32538,-37.621761 C 28.47714,-36.694507 28.74271,-35.350935 29.14107,-33.628892 C 29.52047,-31.887926 29.80501,-30.506507 29.99471,-29.484635 C 30.1844,-28.462763 30.26028,-27.478739 30.26028,-26.513638 C 30.26028,-25.018677 29.89986,-23.694029 29.17901,-22.520769 C 28.4392,-21.347509 27.452783,-20.439179 26.200792,-19.795779 C 24.967769,-19.152379 23.60196,-18.830679 22.122334,-18.830679 C 20.035681,-18.830679 18.214603,-19.417309 16.659098,-20.571639 C 15.103593,-21.744899 14.268932,-23.315558 14.193054,-25.321454 C 14.249962,-26.210861 14.458628,-27.043497 14.838019,-27.838286 C 15.21741,-28.633075 15.729589,-29.276476 16.393524,-29.768488 C 17.038489,-30.279424 17.816242,-30.544354 18.707811,-30.601124 C 19.447625,-30.601124 20.149499,-30.392965 20.813434,-29.995571 C 21.458399,-29.579253 21.989547,-29.03047 22.387908,-28.330298 C 22.767299,-27.630127 22.975965,-26.854261 22.975965,-26.021625 C 22.975965,-24.905136 22.596573,-23.958958 21.83779,-23.183093 C 21.079008,-22.407229 20.11156,-22.009829 18.954416,-22.009829 L 18.518116,-22.009829 C 19.257929,-20.874419 20.471981,-20.287789 22.160273,-20.287789 C 23.013904,-20.287789 23.886504,-20.477029 24.759104,-20.817649 C 25.650674,-21.177199 26.390487,-21.650289 27.016483,-22.255839 C 27.642479,-22.861392 28.059809,-23.504793 28.230536,-24.186041 C 28.55302,-24.961906 28.70477,-26.040549 28.70477,-27.384121 C 28.70477,-28.292451 28.60993,-29.200782 28.4392,-30.109112 C 28.268475,-30.998519 28.002901,-32.190703 27.642479,-33.666739 C 27.282057,-35.123853 27.016483,-36.259266 26.864726,-37.035131 C 25.726552,-36.751278 24.550439,-36.59989 23.317417,-36.59989 C 21.249734,-36.59989 19.295868,-37.016208 17.45582,-37.867768 C 15.615771,-38.719327 14.003358,-39.892587 12.59961,-41.406471 C 11.214831,-42.920355 10.133566,-44.623475 9.3558126,-46.553677 C 8.5970306,-48.464956 8.1986696,-50.470852 8.1796996,-52.552442 C 8.2555776,-54.482644 8.6159996,-56.337152 9.2989046,-58.078119 C 9.9818086,-59.838009 10.854409,-61.503282 11.935675,-63.055013 C 13.01694,-64.606744 14.136145,-66.02601 15.293289,-67.293888 C 16.469402,-68.542842 18.005937,-70.151344 19.940833,-72.10047 z "
       style="fill:#131516;fill-rule:evenodd;stroke:#131516;stroke-width:0.05683964"
       id="path1843" />
    <path
       d="M 202.3247,-95.491047 L 202.3247,-95.745947 C 203.74266,-95.962747 204.80028,-96.384647 205.49755,-97.011547 C 206.00145,-97.456847 206.2534,-97.987147 206.25341,-98.602447 C 206.2534,-99.065245 206.10692,-99.446145 205.81395,-99.744946 C 205.52098,-100.04965 205.29149,-100.35825 204.81298,-100.51455 C 204.18914,-100.71825 203.06928,-100.85545 202.55951,-100.04105 C 202.778,-99.760546 202.94535,-99.587345 202.90163,-99.067145 C 202.85777,-98.545247 202.12301,-98.333547 201.91993,-98.323947 C 201.74802,-98.315847 201.06499,-98.644347 201.05076,-99.208545 C 201.0407,-99.607546 201.25049,-100.09285 201.57455,-100.16985 C 202.03943,-100.71465 202.09366,-100.77335 202.60776,-101.05705 C 203.48343,-101.54025 204.05458,-101.49595 204.62295,-101.49605 C 205.31435,-101.49605 206.66942,-100.93445 207.09716,-100.51845 C 207.52488,-100.10825 207.73875,-99.586745 207.73876,-98.953947 C 207.73875,-98.414947 207.5366,-97.896347 207.13231,-97.398347 C 206.73387,-96.900247 206.04539,-96.454947 205.06688,-96.062347 C 205.67625,-95.810447 206.13621,-95.447147 206.44677,-94.972547 C 206.75731,-94.503747 206.91258,-93.938347 206.91259,-93.276247 C 206.91258,-92.543847 206.70164,-91.808447 206.27977,-91.070148 C 205.85789,-90.337748 205.27782,-89.769448 204.53954,-89.365098 C 203.80711,-88.966598 202.94286,-89.079898 202.13427,-89.079898 C 201.39598,-89.079898 200.27308,-89.511448 199.67138,-90.081948 C 199.06968,-90.652348 198.72904,-91.300948 198.79735,-91.859247 C 198.91111,-92.789147 199.50927,-92.953947 199.97606,-92.985247 C 200.43987,-93.016247 200.89187,-92.886447 200.9331,-92.258647 C 200.9658,-91.760747 200.91161,-91.487148 200.24364,-90.907148 C 200.61278,-90.233248 201.358,-89.609448 202.32372,-89.587748 C 202.96935,-89.573248 204.54247,-89.889548 204.88231,-90.498948 C 205.22801,-91.114148 205.40086,-91.767447 205.40087,-92.458847 C 205.40086,-93.021347 205.28368,-93.522347 205.04931,-93.961747 C 204.82079,-94.401247 204.4575,-94.755747 203.95946,-95.025247 C 203.46141,-95.300647 202.91649,-95.455947 202.3247,-95.491047"
       style="font-size:18px;font-style:italic;font-variant:normal;font-weight:normal;font-stretch:normal;text-align:start;line-height:125%;writing-mode:lr-tb;text-anchor:start;fill:#000000;fill-opacity:1;stroke:none;stroke-width:0.5;stroke-linecap:butt;stroke-linejoin:miter;stroke-miterlimit:4;stroke-opacity:1;font-family:Times New Roman"
       id="path2071" />
    <g
       transform="translate(143.3958,-1089.018)"
       id="g2073">
      <path
         d="M 55.754151,1050.7599 C 59.149991,1048.9399 60.959431,1045.6453 59.846371,1043.1669 C 58.659111,1040.5233 54.579361,1039.7772 50.739791,1041.5015 C 46.900231,1043.2259 44.747631,1046.7709 45.934891,1049.4146 C 47.122161,1052.0582 51.201901,1052.8043 55.041471,1051.0799 C 55.281441,1050.9722 55.527751,1050.8812 55.754151,1050.7599 z "
         style="opacity:0.9;fill:#000000;fill-opacity:1;fill-rule:evenodd;stroke:none;stroke-width:0.2;stroke-miterlimit:4;stroke-dashoffset:0;stroke-opacity:1"
         id="path2075" />
      <path
         d="M 59.386651,1044.4265 L 59.386651,1010.8389"
         style="fill:none;fill-opacity:0.75;fill-rule:evenodd;stroke:#000000;stroke-width:1.5;stroke-linecap:butt;stroke-linejoin:miter;stroke-miterlimit:4;stroke-dasharray:none;stroke-opacity:1"
         id="path2077" />
    </g>
    <g
       transform="translate(162.0993,-1089.372)"
       id="g2079">
      <path
         d="M 10.145751,1051.1135 C 13.541591,1049.2935 15.351031,1045.9989 14.237971,1043.5205 C 13.050711,1040.8769 8.9709609,1040.1308 5.1313909,1041.8551 C 1.2918309,1043.5795 -0.86076913,1047.1245 0.32649087,1049.7682 C 1.5137609,1052.4118 5.5935009,1053.1579 9.4330709,1051.4335 C 9.6730409,1051.3258 9.9193509,1051.2348 10.145751,1051.1135 z "
         style="opacity:0.9;fill:#000000;fill-opacity:1;fill-rule:evenodd;stroke:none;stroke-width:0.2;stroke-miterlimit:4;stroke-dashoffset:0;stroke-opacity:1"
         id="path2081" />
      <path
         d="M 13.778251,1044.7801 L 13.778251,1011.1925"
         style="fill:none;fill-opacity:0.75;fill-rule:evenodd;stroke:#000000;stroke-width:1.5;stroke-linecap:butt;stroke-linejoin:miter;stroke-miterlimit:4;stroke-dasharray:none;stroke-opacity:1"
         id="path2083" />
    </g>
    <rect
       width="55.419266"
       height="4.4712305"
       x="-230.51892"
       y="75.16938"
       transform="scale(-1,-1)"
       style="opacity:0.9;fill:#000000;fill-opacity:1;fill-rule:evenodd;stroke:none;stroke-width:0.5;stroke-miterlimit:4;stroke-dasharray:none;stroke-dashoffset:0;stroke-opacity:1"
       id="rect2085" />
    <g
       transform="translate(170.4082,-1089.018)"
       id="g2087">
      <path
         d="M 55.754151,1050.7599 C 59.149991,1048.9399 60.959431,1045.6453 59.846371,1043.1669 C 58.659111,1040.5233 54.579361,1039.7772 50.739791,1041.5015 C 46.900231,1043.2259 44.747631,1046.7709 45.934891,1049.4146 C 47.122161,1052.0582 51.201901,1052.8043 55.041471,1051.0799 C 55.281441,1050.9722 55.527751,1050.8812 55.754151,1050.7599 z "
         style="opacity:0.9;fill:#000000;fill-opacity:1;fill-rule:evenodd;stroke:none;stroke-width:0.2;stroke-miterlimit:4;stroke-dashoffset:0;stroke-opacity:1"
         id="path2089" />
      <path
         d="M 59.386651,1044.4265 L 59.386651,1010.8389"
         style="fill:none;fill-opacity:0.75;fill-rule:evenodd;stroke:#000000;stroke-width:1.5;stroke-linecap:butt;stroke-linejoin:miter;stroke-miterlimit:4;stroke-dasharray:none;stroke-opacity:1"
         id="path2091" />
    </g>
    <path
       d="M 249.17775,-82.14818 L 249.17775,-37.488417"
       style="fill:none;fill-opacity:0.75;fill-rule:evenodd;stroke:#000000;stroke-width:1px;stroke-linecap:butt;stroke-linejoin:miter;stroke-opacity:1"
       id="path2093" />
  </g>
  <g
     transform="translate(280.21,3.250545)"
     id="g2176">
    <g
       transform="matrix(1.275996,0,0,1,114.504,98.64764)"
       id="g2132">
      <path
         d="M -89.36166,-81.968079 L 105.71594,-81.968079"
         style="fill:none;fill-rule:evenodd;stroke:#131516;stroke-width:0.84781325"
         id="path2134" />
      <path
         d="M -89.36166,-48.462889 L 105.71594,-48.462889"
         style="fill:none;fill-rule:evenodd;stroke:#131516;stroke-width:0.84781325"
         id="path2136" />
      <path
         d="M -89.36166,-59.644789 L 105.71594,-59.644789"
         style="fill:none;fill-rule:evenodd;stroke:#131516;stroke-width:0.84781325"
         id="path2138" />
      <path
         d="M -89.36166,-70.806439 L 105.71594,-70.806439"
         style="fill:none;fill-rule:evenodd;stroke:#131516;stroke-width:0.84781325"
         id="path2140" />
      <path
         d="M -89.36166,-37.301239 L 105.71594,-37.301239"
         style="fill:none;fill-rule:evenodd;stroke:#131516;stroke-width:0.84781325"
         id="path2142" />
    </g>
    <g
       transform="translate(-492.1,-101.934)"
       id="g1683">
      <path
         d="M 544.58496,128.88191 C 545.21972,128.2081 545.8789,127.70517 546.5625,127.37312 C 547.24608,127.0411 547.95409,126.87509 548.68652,126.87508 C 550.083,126.87509 551.33788,127.36825 552.45117,128.35457 C 553.56444,129.34091 554.12108,130.82528 554.12109,132.80769 C 554.12108,134.94637 553.4912,136.67 552.23145,137.97859 C 550.97167,139.27742 549.32616,139.92683 547.29492,139.92683 C 545.14648,139.92683 543.44238,139.15047 542.18262,137.59773 C 540.72754,135.7911 540,133.31063 540,130.15633 C 540,126.58212 540.8789,123.70126 542.63672,121.51375 C 544.19921,119.57041 546.1328,118.59873 548.4375,118.59871 C 549.9121,118.59873 551.09374,118.96494 551.98242,119.69734 C 552.88084,120.42978 553.33006,121.28427 553.33008,122.26082 C 553.33006,122.96396 553.11522,123.54013 552.68555,123.98933 C 552.25585,124.43857 551.71874,124.66318 551.07422,124.66316 C 550.5078,124.66318 550.03417,124.46786 549.65332,124.07722 C 549.27245,123.68662 549.08202,123.19833 549.08203,122.61238 C 549.08202,122.17295 549.20897,121.74326 549.46289,121.32332 C 549.60936,121.0792 549.68261,120.879 549.68262,120.72273 C 549.68261,120.47861 549.58007,120.2833 549.375,120.1368 C 549.16991,119.98056 548.85741,119.90244 548.4375,119.90242 C 547.21679,119.90244 546.29882,120.58603 545.68359,121.9532 C 544.92187,123.6329 544.55566,125.94247 544.58496,128.88191 M 547.41211,128.80867 C 546.67968,128.80868 546.0205,129.20907 545.43457,130.00984 C 544.84863,130.81063 544.55566,131.95809 544.55566,133.45222 C 544.55566,135.16121 544.86816,136.50887 545.49316,137.49519 C 545.93261,138.19832 546.52343,138.54988 547.26563,138.54988 C 548.01757,138.54988 548.64257,138.16902 549.14063,137.4073 C 549.63866,136.63582 549.88768,135.33699 549.8877,133.51082 C 549.88768,131.74325 549.65819,130.51766 549.19922,129.83406 C 548.74022,129.15048 548.14452,128.80868 547.41211,128.80867"
         style="font-size:30px;font-style:normal;font-variant:normal;font-weight:bold;font-stretch:normal;text-align:start;line-height:125%;writing-mode:lr-tb;text-anchor:start;fill:#000000;fill-opacity:1;stroke:none;stroke-width:1px;stroke-linecap:butt;stroke-linejoin:miter;stroke-opacity:1;font-family:Century Schoolbook"
         id="path1703" />
      <path
         d="M 549.53613,148.86014 C 551.2744,149.60234 552.47069,150.42265 553.125,151.32108 C 553.78905,152.20976 554.12108,153.3328 554.12109,154.69022 C 554.12108,156.67264 553.47166,158.28397 552.17285,159.5242 C 550.87401,160.76443 549.11132,161.38455 546.88477,161.38455 C 544.72656,161.38455 543.0371,160.88651 541.81641,159.89041 C 540.60547,158.89432 540,157.61991 540,156.06717 C 540,154.91483 540.33691,153.94315 541.01074,153.15213 C 541.69433,152.36112 542.91503,151.66288 544.67285,151.0574 C 543.19824,150.34452 542.18261,149.58281 541.62598,148.77225 C 541.06933,147.96171 540.79101,146.99003 540.79102,145.85721 C 540.79101,144.26543 541.38672,142.90312 542.57813,141.77029 C 543.77929,140.62774 545.28808,140.05645 547.10449,140.05643 C 548.90136,140.05645 550.35155,140.49102 551.45508,141.36014 C 552.55858,142.2293 553.11034,143.24004 553.11035,144.39236 C 553.11034,145.24199 552.85155,146.02324 552.33398,146.73611 C 551.81639,147.44902 550.88378,148.15703 549.53613,148.86014 M 548.4082,148.44998 C 549.19921,147.85429 549.73143,147.29765 550.00488,146.78006 C 550.28807,146.25273 550.42968,145.6082 550.42969,144.84647 C 550.42968,143.80156 550.11229,142.96172 549.47754,142.32693 C 548.84276,141.68242 548.00292,141.36016 546.95801,141.36014 C 545.98144,141.36016 545.19042,141.64824 544.58496,142.2244 C 543.98925,142.79082 543.6914,143.50859 543.69141,144.37772 C 543.6914,145.19804 543.9746,145.90117 544.54102,146.48709 C 545.11718,147.06328 546.40624,147.71757 548.4082,148.44998 M 545.93262,151.61404 C 544.99511,152.01444 544.30663,152.55155 543.86719,153.22537 C 543.42773,153.88944 543.208,154.76346 543.20801,155.84744 C 543.208,157.16581 543.56933,158.19608 544.29199,158.93826 C 545.01464,159.67069 545.98144,160.0369 547.19238,160.0369 C 548.45214,160.0369 549.46776,159.69022 550.23926,158.99686 C 551.02049,158.29373 551.41112,157.3953 551.41113,156.30154 C 551.41112,155.24686 551.03026,154.40702 550.26855,153.78201 C 549.50682,153.15702 548.06151,152.43437 545.93262,151.61404"
         style="font-size:30px;font-style:normal;font-variant:normal;font-weight:bold;font-stretch:normal;text-align:start;line-height:125%;writing-mode:lr-tb;text-anchor:start;fill:#000000;fill-opacity:1;stroke:none;stroke-width:1px;stroke-linecap:butt;stroke-linejoin:miter;stroke-opacity:1;font-family:Century Schoolbook"
         id="path1705" />
    </g>
    <g
       transform="translate(61.38358,-990.7644)"
       id="g2112">
      <path
         d="M 55.754151,1050.7599 C 59.149991,1048.9399 60.959431,1045.6453 59.846371,1043.1669 C 58.659111,1040.5233 54.579361,1039.7772 50.739791,1041.5015 C 46.900231,1043.2259 44.747631,1046.7709 45.934891,1049.4146 C 47.122161,1052.0582 51.201901,1052.8043 55.041471,1051.0799 C 55.281441,1050.9722 55.527751,1050.8812 55.754151,1050.7599 z "
         style="opacity:0.9;fill:#000000;fill-opacity:1;fill-rule:evenodd;stroke:none;stroke-width:0.2;stroke-miterlimit:4;stroke-dashoffset:0;stroke-opacity:1"
         id="path2114" />
      <path
         d="M 59.386651,1044.4265 L 59.386651,1010.8389"
         style="fill:none;fill-opacity:0.75;fill-rule:evenodd;stroke:#000000;stroke-width:1.5;stroke-linecap:butt;stroke-linejoin:miter;stroke-miterlimit:4;stroke-dasharray:none;stroke-opacity:1"
         id="path2116" />
    </g>
    <g
       transform="translate(80.0871,-991.1184)"
       id="g2118">
      <path
         d="M 10.145751,1051.1135 C 13.541591,1049.2935 15.351031,1045.9989 14.237971,1043.5205 C 13.050711,1040.8769 8.9709609,1040.1308 5.1313909,1041.8551 C 1.2918309,1043.5795 -0.86076913,1047.1245 0.32649087,1049.7682 C 1.5137609,1052.4118 5.5935009,1053.1579 9.4330709,1051.4335 C 9.6730409,1051.3258 9.9193509,1051.2348 10.145751,1051.1135 z "
         style="opacity:0.9;fill:#000000;fill-opacity:1;fill-rule:evenodd;stroke:none;stroke-width:0.2;stroke-miterlimit:4;stroke-dashoffset:0;stroke-opacity:1"
         id="path2120" />
      <path
         d="M 13.778251,1044.7801 L 13.778251,1011.1925"
         style="fill:none;fill-opacity:0.75;fill-rule:evenodd;stroke:#000000;stroke-width:1.5;stroke-linecap:butt;stroke-linejoin:miter;stroke-miterlimit:4;stroke-dasharray:none;stroke-opacity:1"
         id="path2122" />
    </g>
    <rect
       width="55.419266"
       height="4.4712305"
       x="-148.50671"
       y="-23.08469"
       transform="scale(-1,-1)"
       style="opacity:0.9;fill:#000000;fill-opacity:1;fill-rule:evenodd;stroke:none;stroke-width:0.5;stroke-miterlimit:4;stroke-dasharray:none;stroke-dashoffset:0;stroke-opacity:1"
       id="rect2124" />
    <g
       transform="translate(88.39599,-990.7644)"
       id="g2126">
      <path
         d="M 55.754151,1050.7599 C 59.149991,1048.9399 60.959431,1045.6453 59.846371,1043.1669 C 58.659111,1040.5233 54.579361,1039.7772 50.739791,1041.5015 C 46.900231,1043.2259 44.747631,1046.7709 45.934891,1049.4146 C 47.122161,1052.0582 51.201901,1052.8043 55.041471,1051.0799 C 55.281441,1050.9722 55.527751,1050.8812 55.754151,1050.7599 z "
         style="opacity:0.9;fill:#000000;fill-opacity:1;fill-rule:evenodd;stroke:none;stroke-width:0.2;stroke-miterlimit:4;stroke-dashoffset:0;stroke-opacity:1"
         id="path2128" />
      <path
         d="M 59.386651,1044.4265 L 59.386651,1010.8389"
         style="fill:none;fill-opacity:0.75;fill-rule:evenodd;stroke:#000000;stroke-width:1.5;stroke-linecap:butt;stroke-linejoin:miter;stroke-miterlimit:4;stroke-dasharray:none;stroke-opacity:1"
         id="path2130" />
    </g>
    <path
       d="M 23.658864,45.319323 C 22.501724,45.641023 21.458394,46.360118 20.490944,47.457684 C 19.523494,48.574174 19.049264,49.804204 19.049264,51.128853 C 19.049264,51.961489 19.333804,52.907667 19.883924,53.910615 C 20.434034,54.932486 21.268694,55.670505 22.349964,56.143594 C 22.710384,56.219288 22.881114,56.408523 22.881114,56.673453 C 22.881114,56.768071 22.748324,56.862689 22.425844,56.938383 C 20.699614,56.503141 19.276894,55.575887 18.176654,54.194468 C 17.076424,52.794125 16.507334,51.204547 16.469394,49.387886 C 16.526304,47.438761 17.114364,45.6221 18.233564,43.956827 C 19.371744,42.272632 20.832394,41.080448 22.615534,40.380276 L 21.306634,33.662416 C 18.385324,36.084631 16.014124,38.601463 14.174084,41.25076 C 12.334034,43.881133 11.385554,46.738589 11.309674,49.823128 C 11.347614,51.204547 11.632154,52.548119 12.163304,53.834921 C 12.694454,55.140646 13.491174,56.313906 14.553474,57.392548 C 16.697034,59.530909 19.485564,60.647399 22.881114,60.76094 C 24.038254,60.685246 25.271274,60.477087 26.599144,60.136463 L 23.658864,45.319323 z M 25.024674,45.130088 L 27.983924,59.682298 C 30.905234,58.509037 32.365896,55.954358 32.365896,52.056107 C 32.195176,50.750382 31.815774,49.577122 31.170814,48.536327 C 30.544814,47.476608 29.710154,46.643972 28.647864,46.038418 C 27.585564,45.432864 26.390484,45.130088 25.024674,45.130088 z M 21.135914,25.449596 C 21.761904,25.071125 22.482754,24.4088 23.260504,23.481546 C 24.038254,22.573216 24.797034,21.494574 25.517884,20.283466 C 26.257694,19.053436 26.845754,17.804481 27.282054,16.536604 C 27.718354,15.287649 27.927014,14.095466 27.927014,12.9979 C 27.927014,12.524811 27.889074,12.051722 27.794234,11.635404 C 27.718354,10.954156 27.509684,10.424297 27.149264,10.064749 C 26.788844,9.724126 26.333574,9.53489 25.764484,9.53489 C 24.626314,9.53489 23.601954,10.235061 22.691414,11.635404 C 21.989544,12.846511 21.401484,14.284701 20.984154,15.912126 C 20.547854,17.558475 20.301254,19.1859 20.263314,20.832249 C 20.358164,22.705681 20.661674,24.238488 21.135914,25.449596 z M 19.940824,26.547161 C 19.087194,23.481546 18.612964,20.359161 18.518114,17.180004 C 18.537084,15.136261 18.745744,13.224982 19.144104,11.446169 C 19.523494,9.667355 20.073614,8.134547 20.794464,6.809899 C 21.496334,5.48525 22.312024,4.482302 23.222564,3.801054 C 24.038254,3.195501 24.626314,2.8738 24.948794,2.8738 C 25.195404,2.8738 25.404064,2.968418 25.593764,3.13873 C 25.783454,3.309042 26.030064,3.592895 26.333574,3.971366 C 28.590954,7.169446 29.729124,11.02985 29.729124,15.533655 C 29.729124,17.672017 29.444584,19.753607 28.875494,21.835198 C 28.325374,23.897864 27.509684,25.865914 26.428424,27.701498 C 25.328184,29.556006 24.038254,31.164508 22.539664,32.545927 L 24.076194,40.001806 C 24.910854,39.907188 25.479944,39.831494 25.802424,39.831494 C 27.244114,39.831494 28.534044,40.13427 29.729124,40.739824 C 30.924204,41.345378 31.948564,42.15909 32.783226,43.199885 C 33.617886,44.221757 34.262856,45.395017 34.718126,46.719666 C 35.154426,48.044314 35.401026,49.425733 35.401026,50.863923 C 35.401026,53.096902 34.812976,55.140646 33.636856,56.97623 C 32.460746,58.811814 30.696574,60.155386 28.325374,61.02587 C 28.477134,61.953124 28.742704,63.296696 29.141064,65.018739 C 29.520464,66.759705 29.805004,68.141124 29.994704,69.162996 C 30.184394,70.184868 30.260274,71.168892 30.260274,72.133993 C 30.260274,73.628954 29.899854,74.953602 29.179004,76.126862 C 28.439194,77.300122 27.452774,78.208452 26.200784,78.851852 C 24.967764,79.495252 23.601954,79.816952 22.122334,79.816952 C 20.035674,79.816952 18.214594,79.230322 16.659094,78.075992 C 15.103584,76.902732 14.268924,75.332073 14.193054,73.326177 C 14.249954,72.43677 14.458624,71.604134 14.838014,70.809345 C 15.217404,70.014556 15.729584,69.371155 16.393524,68.879143 C 17.038484,68.368207 17.816234,68.103277 18.707804,68.046507 C 19.447624,68.046507 20.149494,68.254666 20.813434,68.65206 C 21.458394,69.068378 21.989544,69.617161 22.387904,70.317333 C 22.767294,71.017504 22.975964,71.79337 22.975964,72.626006 C 22.975964,73.742495 22.596564,74.688673 21.837784,75.464538 C 21.079004,76.240402 20.111554,76.637802 18.954414,76.637802 L 18.518114,76.637802 C 19.257924,77.773212 20.471974,78.359842 22.160264,78.359842 C 23.013904,78.359842 23.886504,78.170602 24.759104,77.829982 C 25.650674,77.470432 26.390484,76.997342 27.016474,76.391792 C 27.642474,75.786239 28.059804,75.142838 28.230534,74.46159 C 28.553014,73.685725 28.704764,72.607082 28.704764,71.26351 C 28.704764,70.35518 28.609924,69.446849 28.439194,68.538519 C 28.268474,67.649112 28.002894,66.456928 27.642474,64.980892 C 27.282054,63.523778 27.016474,62.388365 26.864724,61.6125 C 25.726544,61.896353 24.550434,62.047741 23.317414,62.047741 C 21.249734,62.047741 19.295864,61.631423 17.455814,60.779863 C 15.615764,59.928304 14.003354,58.755044 12.599604,57.24116 C 11.214824,55.727276 10.133564,54.024156 9.3558036,52.093954 C 8.5970236,50.182675 8.1986636,48.176779 8.1796936,46.095189 C 8.2555736,44.164987 8.6159936,42.310479 9.2989036,40.569512 C 9.9818036,38.809622 10.854404,37.144349 11.935674,35.592618 C 13.016934,34.040887 14.136144,32.621621 15.293284,31.353743 C 16.469394,30.104789 18.005934,28.496287 19.940824,26.547161 z "
       style="fill:#131516;fill-rule:evenodd;stroke:#131516;stroke-width:0.05683964"
       id="path2150" />
    <g
       transform="translate(143.3958,-990.3704)"
       id="g2154">
      <path
         d="M 55.754151,1050.7599 C 59.149991,1048.9399 60.959431,1045.6453 59.846371,1043.1669 C 58.659111,1040.5233 54.579361,1039.7772 50.739791,1041.5015 C 46.900231,1043.2259 44.747631,1046.7709 45.934891,1049.4146 C 47.122161,1052.0582 51.201901,1052.8043 55.041471,1051.0799 C 55.281441,1050.9722 55.527751,1050.8812 55.754151,1050.7599 z "
         style="opacity:0.9;fill:#000000;fill-opacity:1;fill-rule:evenodd;stroke:none;stroke-width:0.2;stroke-miterlimit:4;stroke-dashoffset:0;stroke-opacity:1"
         id="path2156" />
      <path
         d="M 59.386651,1044.4265 L 59.386651,1010.8389"
         style="fill:none;fill-opacity:0.75;fill-rule:evenodd;stroke:#000000;stroke-width:1.5;stroke-linecap:butt;stroke-linejoin:miter;stroke-miterlimit:4;stroke-dasharray:none;stroke-opacity:1"
         id="path2158" />
    </g>
    <g
       transform="translate(162.0993,-990.7244)"
       id="g2160">
      <path
         d="M 10.145751,1051.1135 C 13.541591,1049.2935 15.351031,1045.9989 14.237971,1043.5205 C 13.050711,1040.8769 8.9709609,1040.1308 5.1313909,1041.8551 C 1.2918309,1043.5795 -0.86076913,1047.1245 0.32649087,1049.7682 C 1.5137609,1052.4118 5.5935009,1053.1579 9.4330709,1051.4335 C 9.6730409,1051.3258 9.9193509,1051.2348 10.145751,1051.1135 z "
         style="opacity:0.9;fill:#000000;fill-opacity:1;fill-rule:evenodd;stroke:none;stroke-width:0.2;stroke-miterlimit:4;stroke-dashoffset:0;stroke-opacity:1"
         id="path2162" />
      <path
         d="M 13.778251,1044.7801 L 13.778251,1011.1925"
         style="fill:none;fill-opacity:0.75;fill-rule:evenodd;stroke:#000000;stroke-width:1.5;stroke-linecap:butt;stroke-linejoin:miter;stroke-miterlimit:4;stroke-dasharray:none;stroke-opacity:1"
         id="path2164" />
    </g>
    <rect
       width="55.419266"
       height="4.4712305"
       x="-230.51892"
       y="-23.478252"
       transform="scale(-1,-1)"
       style="opacity:0.9;fill:#000000;fill-opacity:1;fill-rule:evenodd;stroke:none;stroke-width:0.5;stroke-miterlimit:4;stroke-dasharray:none;stroke-dashoffset:0;stroke-opacity:1"
       id="rect2166" />
    <g
       transform="translate(170.4082,-990.3704)"
       id="g2168">
      <path
         d="M 55.754151,1050.7599 C 59.149991,1048.9399 60.959431,1045.6453 59.846371,1043.1669 C 58.659111,1040.5233 54.579361,1039.7772 50.739791,1041.5015 C 46.900231,1043.2259 44.747631,1046.7709 45.934891,1049.4146 C 47.122161,1052.0582 51.201901,1052.8043 55.041471,1051.0799 C 55.281441,1050.9722 55.527751,1050.8812 55.754151,1050.7599 z "
         style="opacity:0.9;fill:#000000;fill-opacity:1;fill-rule:evenodd;stroke:none;stroke-width:0.2;stroke-miterlimit:4;stroke-dashoffset:0;stroke-opacity:1"
         id="path2170" />
      <path
         d="M 59.386651,1044.4265 L 59.386651,1010.8389"
         style="fill:none;fill-opacity:0.75;fill-rule:evenodd;stroke:#000000;stroke-width:1.5;stroke-linecap:butt;stroke-linejoin:miter;stroke-miterlimit:4;stroke-dasharray:none;stroke-opacity:1"
         id="path2172" />
    </g>
    <path
       d="M 249.17775,16.499451 L 249.17775,61.159214"
       style="fill:none;fill-opacity:0.75;fill-rule:evenodd;stroke:#000000;stroke-width:1px;stroke-linecap:butt;stroke-linejoin:miter;stroke-opacity:1"
       id="path2174" />
  </g>
  <text
     x="260.63974"
     y="60.001553"
     style="font-size:12px;font-style:normal;font-weight:normal;line-height:125%;fill:#000000;fill-opacity:1;stroke:none;stroke-width:1px;stroke-linecap:butt;stroke-linejoin:miter;stroke-opacity:1;font-family:Bitstream Vera Sans"
     id="text2244"
     xml:space="preserve"><tspan
       x="260.63974"
       y="60.001553"
       style="font-size:24px;font-style:normal;font-variant:normal;font-weight:bold;font-stretch:normal;text-align:start;line-height:125%;writing-mode:lr-tb;text-anchor:start;font-family:Times New Roman"
       id="tspan2246">=</tspan></text>
</svg>
